<svg xmlns="http://www.w3.org/2000/svg" viewBox="0 0 1024 1024" width="1024" height="1024"><rect width="1024" height="1024" fill="#0B0E1A"/><path d="M40 0V1024M80 0V1024M120 0V1024M160 0V1024M200 0V1024M240 0V1024M280 0V1024M320 0V1024M360 0V1024M400 0V1024M440 0V1024M480 0V1024M520 0V1024M560 0V1024M600 0V1024M640 0V1024M680 0V1024M720 0V1024M760 0V1024M800 0V1024M840 0V1024M880 0V1024M920 0V1024M960 0V1024M1000 0V1024M0 40H1024M0 80H1024M0 120H1024M0 160H1024M0 200H1024M0 240H1024M0 280H1024M0 320H1024M0 360H1024M0 400H1024M0 440H1024M0 480H1024M0 520H1024M0 560H1024M0 600H1024M0 640H1024M0 680H1024M0 720H1024M0 760H1024M0 800H1024M0 840H1024M0 880H1024M0 920H1024M0 960H1024M0 1000H1024" stroke="#FFFFFF" stroke-width="2" opacity="0.05"/><g shape-rendering="crispEdges"><rect x="400" y="320" width="40" height="40" fill="#F59E0B"/><path d="M403 357V323H437" fill="none" stroke="#fff" stroke-opacity=".45" stroke-width="6"/><path d="M437 323V357H403" fill="none" stroke="#000" stroke-opacity=".3" stroke-width="6"/><rect x="440" y="320" width="40" height="40" fill="#F59E0B"/><path d="M443 357V323H477" fill="none" stroke="#fff" stroke-opacity=".45" stroke-width="6"/><path d="M477 323V357H443" fill="none" stroke="#000" stroke-opacity=".3" stroke-width="6"/><rect x="520" y="320" width="40" height="40" fill="#EF4444"/><path d="M523 357V323H557" fill="none" stroke="#fff" stroke-opacity=".45" stroke-width="6"/><path d="M557 323V357H523" fill="none" stroke="#000" stroke-opacity=".3" stroke-width="6"/><rect x="560" y="320" width="40" height="40" fill="#06B6D4"/><path d="M563 357V323H597" fill="none" stroke="#fff" stroke-opacity=".45" stroke-width="6"/><path d="M597 323V357H563" fill="none" stroke="#000" stroke-opacity=".3" stroke-width="6"/><rect x="600" y="320" width="40" height="40" fill="#06B6D4"/><path d="M603 357V323H637" fill="none" stroke="#fff" stroke-opacity=".45" stroke-width="6"/><path d="M637 323V357H603" fill="none" stroke="#000" stroke-opacity=".3" stroke-width="6"/><rect x="320" y="360" width="40" height="40" fill="#2F5FD8"/><path d="M323 397V363H357" fill="none" stroke="#fff" stroke-opacity=".45" stroke-width="6"/><path d="M357 363V397H323" fill="none" stroke="#000" stroke-opacity=".3" stroke-width="6"/><rect x="360" y="360" width="40" height="40" fill="#2F5FD8"/><path d="M363 397V363H397" fill="none" stroke="#fff" stroke-opacity=".45" stroke-width="6"/><path d="M397 363V397H363" fill="none" stroke="#000" stroke-opacity=".3" stroke-width="6"/><rect x="400" y="360" width="40" height="40" fill="#F59E0B"/><path d="M403 397V363H437" fill="none" stroke="#fff" stroke-opacity=".45" stroke-width="6"/><path d="M437 363V397H403" fill="none" stroke="#000" stroke-opacity=".3" stroke-width="6"/><rect x="440" y="360" width="40" height="40" fill="#F59E0B"/><path d="M443 397V363H477" fill="none" stroke="#fff" stroke-opacity=".45" stroke-width="6"/><path d="M477 363V397H443" fill="none" stroke="#000" stroke-opacity=".3" stroke-width="6"/><rect x="480" y="360" width="40" height="40" fill="#F59E0B"/><path d="M483 397V363H517" fill="none" stroke="#fff" stroke-opacity=".45" stroke-width="6"/><path d="M517 363V397H483" fill="none" stroke="#000" stroke-opacity=".3" stroke-width="6"/><rect x="520" y="360" width="40" height="40" fill="#22C55E"/><path d="M523 397V363H557" fill="none" stroke="#fff" stroke-opacity=".45" stroke-width="6"/><path d="M557 363V397H523" fill="none" stroke="#000" stroke-opacity=".3" stroke-width="6"/><rect x="560" y="360" width="40" height="40" fill="#06B6D4"/><path d="M563 397V363H597" fill="none" stroke="#fff" stroke-opacity=".45" stroke-width="6"/><path d="M597 363V397H563" fill="none" stroke="#000" stroke-opacity=".3" stroke-width="6"/><rect x="600" y="360" width="40" height="40" fill="#06B6D4"/><path d="M603 397V363H637" fill="none" stroke="#fff" stroke-opacity=".45" stroke-width="6"/><path d="M637 363V397H603" fill="none" stroke="#000" stroke-opacity=".3" stroke-width="6"/><rect x="640" y="360" width="40" height="40" fill="#8B5CF6"/><path d="M643 397V363H677" fill="none" stroke="#fff" stroke-opacity=".45" stroke-width="6"/><path d="M677 363V397H643" fill="none" stroke="#000" stroke-opacity=".3" stroke-width="6"/><rect x="680" y="360" width="40" height="40" fill="#8B5CF6"/><path d="M683 397V363H717" fill="none" stroke="#fff" stroke-opacity=".45" stroke-width="6"/><path d="M717 363V397H683" fill="none" stroke="#000" stroke-opacity=".3" stroke-width="6"/><rect x="280" y="400" width="40" height="40" fill="#8B5CF6"/><path d="M283 437V403H317" fill="none" stroke="#fff" stroke-opacity=".45" stroke-width="6"/><path d="M317 403V437H283" fill="none" stroke="#000" stroke-opacity=".3" stroke-width="6"/><rect x="320" y="400" width="40" height="40" fill="#2F5FD8"/><path d="M323 437V403H357" fill="none" stroke="#fff" stroke-opacity=".45" stroke-width="6"/><path d="M357 403V437H323" fill="none" stroke="#000" stroke-opacity=".3" stroke-width="6"/><rect x="440" y="400" width="40" height="40" fill="#EAB308"/><path d="M443 437V403H477" fill="none" stroke="#fff" stroke-opacity=".45" stroke-width="6"/><path d="M477 403V437H443" fill="none" stroke="#000" stroke-opacity=".3" stroke-width="6"/><rect x="480" y="400" width="40" height="40" fill="#EF4444"/><path d="M483 437V403H517" fill="none" stroke="#fff" stroke-opacity=".45" stroke-width="6"/><path d="M517 403V437H483" fill="none" stroke="#000" stroke-opacity=".3" stroke-width="6"/><rect x="520" y="400" width="40" height="40" fill="#22C55E"/><path d="M523 437V403H557" fill="none" stroke="#fff" stroke-opacity=".45" stroke-width="6"/><path d="M557 403V437H523" fill="none" stroke="#000" stroke-opacity=".3" stroke-width="6"/><rect x="560" y="400" width="40" height="40" fill="#22C55E"/><path d="M563 437V403H597" fill="none" stroke="#fff" stroke-opacity=".45" stroke-width="6"/><path d="M597 403V437H563" fill="none" stroke="#000" stroke-opacity=".3" stroke-width="6"/><rect x="640" y="400" width="40" height="40" fill="#8B5CF6"/><path d="M643 437V403H677" fill="none" stroke="#fff" stroke-opacity=".45" stroke-width="6"/><path d="M677 403V437H643" fill="none" stroke="#000" stroke-opacity=".3" stroke-width="6"/><rect x="680" y="400" width="40" height="40" fill="#8B5CF6"/><path d="M683 437V403H717" fill="none" stroke="#fff" stroke-opacity=".45" stroke-width="6"/><path d="M717 403V437H683" fill="none" stroke="#000" stroke-opacity=".3" stroke-width="6"/><rect x="280" y="440" width="40" height="40" fill="#8B5CF6"/><path d="M283 477V443H317" fill="none" stroke="#fff" stroke-opacity=".45" stroke-width="6"/><path d="M317 443V477H283" fill="none" stroke="#000" stroke-opacity=".3" stroke-width="6"/><rect x="400" y="440" width="40" height="40" fill="#EAB308"/><path d="M403 477V443H437" fill="none" stroke="#fff" stroke-opacity=".45" stroke-width="6"/><path d="M437 443V477H403" fill="none" stroke="#000" stroke-opacity=".3" stroke-width="6"/><rect x="440" y="440" width="40" height="40" fill="#EAB308"/><path d="M443 477V443H477" fill="none" stroke="#fff" stroke-opacity=".45" stroke-width="6"/><path d="M477 443V477H443" fill="none" stroke="#000" stroke-opacity=".3" stroke-width="6"/><rect x="560" y="440" width="40" height="40" fill="#22C55E"/><path d="M563 477V443H597" fill="none" stroke="#fff" stroke-opacity=".45" stroke-width="6"/><path d="M597 443V477H563" fill="none" stroke="#000" stroke-opacity=".3" stroke-width="6"/><rect x="680" y="440" width="40" height="40" fill="#8B5CF6"/><path d="M683 477V443H717" fill="none" stroke="#fff" stroke-opacity=".45" stroke-width="6"/><path d="M717 443V477H683" fill="none" stroke="#000" stroke-opacity=".3" stroke-width="6"/><rect x="720" y="440" width="40" height="40" fill="#2F5FD8"/><path d="M723 477V443H757" fill="none" stroke="#fff" stroke-opacity=".45" stroke-width="6"/><path d="M757 443V477H723" fill="none" stroke="#000" stroke-opacity=".3" stroke-width="6"/><rect x="280" y="480" width="40" height="40" fill="#8B5CF6"/><path d="M283 517V483H317" fill="none" stroke="#fff" stroke-opacity=".45" stroke-width="6"/><path d="M317 483V517H283" fill="none" stroke="#000" stroke-opacity=".3" stroke-width="6"/><rect x="400" y="480" width="40" height="40" fill="#EAB308"/><path d="M403 517V483H437" fill="none" stroke="#fff" stroke-opacity=".45" stroke-width="6"/><path d="M437 483V517H403" fill="none" stroke="#000" stroke-opacity=".3" stroke-width="6"/><rect x="440" y="480" width="40" height="40" fill="#EAB308"/><path d="M443 517V483H477" fill="none" stroke="#fff" stroke-opacity=".45" stroke-width="6"/><path d="M477 483V517H443" fill="none" stroke="#000" stroke-opacity=".3" stroke-width="6"/><rect x="560" y="480" width="40" height="40" fill="#EAB308"/><path d="M563 517V483H597" fill="none" stroke="#fff" stroke-opacity=".45" stroke-width="6"/><path d="M597 483V517H563" fill="none" stroke="#000" stroke-opacity=".3" stroke-width="6"/><rect x="600" y="480" width="40" height="40" fill="#EAB308"/><path d="M603 517V483H637" fill="none" stroke="#fff" stroke-opacity=".45" stroke-width="6"/><path d="M637 483V517H603" fill="none" stroke="#000" stroke-opacity=".3" stroke-width="6"/><rect x="720" y="480" width="40" height="40" fill="#2F5FD8"/><path d="M723 517V483H757" fill="none" stroke="#fff" stroke-opacity=".45" stroke-width="6"/><path d="M757 483V517H723" fill="none" stroke="#000" stroke-opacity=".3" stroke-width="6"/><rect x="280" y="520" width="40" height="40" fill="#2F5FD8"/><path d="M283 557V523H317" fill="none" stroke="#fff" stroke-opacity=".45" stroke-width="6"/><path d="M317 523V557H283" fill="none" stroke="#000" stroke-opacity=".3" stroke-width="6"/><rect x="400" y="520" width="40" height="40" fill="#EF4444"/><path d="M403 557V523H437" fill="none" stroke="#fff" stroke-opacity=".45" stroke-width="6"/><path d="M437 523V557H403" fill="none" stroke="#000" stroke-opacity=".3" stroke-width="6"/><rect x="440" y="520" width="40" height="40" fill="#EF4444"/><path d="M443 557V523H477" fill="none" stroke="#fff" stroke-opacity=".45" stroke-width="6"/><path d="M477 523V557H443" fill="none" stroke="#000" stroke-opacity=".3" stroke-width="6"/><rect x="560" y="520" width="40" height="40" fill="#EAB308"/><path d="M563 557V523H597" fill="none" stroke="#fff" stroke-opacity=".45" stroke-width="6"/><path d="M597 523V557H563" fill="none" stroke="#000" stroke-opacity=".3" stroke-width="6"/><rect x="680" y="520" width="40" height="40" fill="#2F5FD8"/><path d="M683 557V523H717" fill="none" stroke="#fff" stroke-opacity=".45" stroke-width="6"/><path d="M717 523V557H683" fill="none" stroke="#000" stroke-opacity=".3" stroke-width="6"/><rect x="720" y="520" width="40" height="40" fill="#2F5FD8"/><path d="M723 557V523H757" fill="none" stroke="#fff" stroke-opacity=".45" stroke-width="6"/><path d="M757 523V557H723" fill="none" stroke="#000" stroke-opacity=".3" stroke-width="6"/><rect x="280" y="560" width="40" height="40" fill="#2F5FD8"/><path d="M283 597V563H317" fill="none" stroke="#fff" stroke-opacity=".45" stroke-width="6"/><path d="M317 563V597H283" fill="none" stroke="#000" stroke-opacity=".3" stroke-width="6"/><rect x="320" y="560" width="40" height="40" fill="#2F5FD8"/><path d="M323 597V563H357" fill="none" stroke="#fff" stroke-opacity=".45" stroke-width="6"/><path d="M357 563V597H323" fill="none" stroke="#000" stroke-opacity=".3" stroke-width="6"/><rect x="400" y="560" width="40" height="40" fill="#EF4444"/><path d="M403 597V563H437" fill="none" stroke="#fff" stroke-opacity=".45" stroke-width="6"/><path d="M437 563V597H403" fill="none" stroke="#000" stroke-opacity=".3" stroke-width="6"/><rect x="440" y="560" width="40" height="40" fill="#EF4444"/><path d="M443 597V563H477" fill="none" stroke="#fff" stroke-opacity=".45" stroke-width="6"/><path d="M477 563V597H443" fill="none" stroke="#000" stroke-opacity=".3" stroke-width="6"/><rect x="560" y="560" width="40" height="40" fill="#EF4444"/><path d="M563 597V563H597" fill="none" stroke="#fff" stroke-opacity=".45" stroke-width="6"/><path d="M597 563V597H563" fill="none" stroke="#000" stroke-opacity=".3" stroke-width="6"/><rect x="680" y="560" width="40" height="40" fill="#F59E0B"/><path d="M683 597V563H717" fill="none" stroke="#fff" stroke-opacity=".45" stroke-width="6"/><path d="M717 563V597H683" fill="none" stroke="#000" stroke-opacity=".3" stroke-width="6"/><rect x="720" y="560" width="40" height="40" fill="#F59E0B"/><path d="M723 597V563H757" fill="none" stroke="#fff" stroke-opacity=".45" stroke-width="6"/><path d="M757 563V597H723" fill="none" stroke="#000" stroke-opacity=".3" stroke-width="6"/><rect x="280" y="600" width="40" height="40" fill="#2F5FD8"/><path d="M283 637V603H317" fill="none" stroke="#fff" stroke-opacity=".45" stroke-width="6"/><path d="M317 603V637H283" fill="none" stroke="#000" stroke-opacity=".3" stroke-width="6"/><rect x="320" y="600" width="40" height="40" fill="#8B5CF6"/><path d="M323 637V603H357" fill="none" stroke="#fff" stroke-opacity=".45" stroke-width="6"/><path d="M357 603V637H323" fill="none" stroke="#000" stroke-opacity=".3" stroke-width="6"/><rect x="360" y="600" width="40" height="40" fill="#8B5CF6"/><path d="M363 637V603H397" fill="none" stroke="#fff" stroke-opacity=".45" stroke-width="6"/><path d="M397 603V637H363" fill="none" stroke="#000" stroke-opacity=".3" stroke-width="6"/><rect x="440" y="600" width="40" height="40" fill="#EAB308"/><path d="M443 637V603H477" fill="none" stroke="#fff" stroke-opacity=".45" stroke-width="6"/><path d="M477 603V637H443" fill="none" stroke="#000" stroke-opacity=".3" stroke-width="6"/><rect x="480" y="600" width="40" height="40" fill="#06B6D4"/><path d="M483 637V603H517" fill="none" stroke="#fff" stroke-opacity=".45" stroke-width="6"/><path d="M517 603V637H483" fill="none" stroke="#000" stroke-opacity=".3" stroke-width="6"/><rect x="520" y="600" width="40" height="40" fill="#EF4444"/><path d="M523 637V603H557" fill="none" stroke="#fff" stroke-opacity=".45" stroke-width="6"/><path d="M557 603V637H523" fill="none" stroke="#000" stroke-opacity=".3" stroke-width="6"/><rect x="560" y="600" width="40" height="40" fill="#EF4444"/><path d="M563 637V603H597" fill="none" stroke="#fff" stroke-opacity=".45" stroke-width="6"/><path d="M597 603V637H563" fill="none" stroke="#000" stroke-opacity=".3" stroke-width="6"/><rect x="640" y="600" width="40" height="40" fill="#F59E0B"/><path d="M643 637V603H677" fill="none" stroke="#fff" stroke-opacity=".45" stroke-width="6"/><path d="M677 603V637H643" fill="none" stroke="#000" stroke-opacity=".3" stroke-width="6"/><rect x="680" y="600" width="40" height="40" fill="#F59E0B"/><path d="M683 637V603H717" fill="none" stroke="#fff" stroke-opacity=".45" stroke-width="6"/><path d="M717 603V637H683" fill="none" stroke="#000" stroke-opacity=".3" stroke-width="6"/><rect x="320" y="640" width="40" height="40" fill="#8B5CF6"/><path d="M323 677V643H357" fill="none" stroke="#fff" stroke-opacity=".45" stroke-width="6"/><path d="M357 643V677H323" fill="none" stroke="#000" stroke-opacity=".3" stroke-width="6"/><rect x="360" y="640" width="40" height="40" fill="#8B5CF6"/><path d="M363 677V643H397" fill="none" stroke="#fff" stroke-opacity=".45" stroke-width="6"/><path d="M397 643V677H363" fill="none" stroke="#000" stroke-opacity=".3" stroke-width="6"/><rect x="400" y="640" width="40" height="40" fill="#06B6D4"/><path d="M403 677V643H437" fill="none" stroke="#fff" stroke-opacity=".45" stroke-width="6"/><path d="M437 643V677H403" fill="none" stroke="#000" stroke-opacity=".3" stroke-width="6"/><rect x="440" y="640" width="40" height="40" fill="#06B6D4"/><path d="M443 677V643H477" fill="none" stroke="#fff" stroke-opacity=".45" stroke-width="6"/><path d="M477 643V677H443" fill="none" stroke="#000" stroke-opacity=".3" stroke-width="6"/><rect x="480" y="640" width="40" height="40" fill="#06B6D4"/><path d="M483 677V643H517" fill="none" stroke="#fff" stroke-opacity=".45" stroke-width="6"/><path d="M517 643V677H483" fill="none" stroke="#000" stroke-opacity=".3" stroke-width="6"/><rect x="520" y="640" width="40" height="40" fill="#EF4444"/><path d="M523 677V643H557" fill="none" stroke="#fff" stroke-opacity=".45" stroke-width="6"/><path d="M557 643V677H523" fill="none" stroke="#000" stroke-opacity=".3" stroke-width="6"/><rect x="560" y="640" width="40" height="40" fill="#22C55E"/><path d="M563 677V643H597" fill="none" stroke="#fff" stroke-opacity=".45" stroke-width="6"/><path d="M597 643V677H563" fill="none" stroke="#000" stroke-opacity=".3" stroke-width="6"/><rect x="600" y="640" width="40" height="40" fill="#22C55E"/><path d="M603 677V643H637" fill="none" stroke="#fff" stroke-opacity=".45" stroke-width="6"/><path d="M637 643V677H603" fill="none" stroke="#000" stroke-opacity=".3" stroke-width="6"/><rect x="640" y="640" width="40" height="40" fill="#22C55E"/><path d="M643 677V643H677" fill="none" stroke="#fff" stroke-opacity=".45" stroke-width="6"/><path d="M677 643V677H643" fill="none" stroke="#000" stroke-opacity=".3" stroke-width="6"/></g></svg>
