<svg xmlns="http://www.w3.org/2000/svg" viewBox="0 0 1024 1024" width="1024" height="1024"><rect width="1024" height="1024" fill="#6B9CFF"/><rect x="132" y="110" width="72" height="18" fill="#FFFFFF"/><rect x="114" y="128" width="126" height="18" fill="#FFFFFF"/><rect x="96" y="146" width="180" height="36" fill="#FFFFFF"/><rect x="114" y="182" width="144" height="18" fill="#FFFFFF"/><rect x="728" y="70" width="56" height="14" fill="#FFFFFF"/><rect x="714" y="84" width="98" height="14" fill="#FFFFFF"/><rect x="700" y="98" width="140" height="28" fill="#FFFFFF"/><rect x="714" y="126" width="112" height="14" fill="#FFFFFF"/><path d="M620 864Q800 640 980 864Z" fill="#3FBF55" stroke="#1D7A2E" stroke-width="8"/><rect y="864" width="1024" height="160" fill="#C96A32"/><rect y="864" width="1024" height="4" fill="#6E2D0C"/><rect x="0" y="864" width="4" height="32" fill="#6E2D0C"/><rect x="64" y="864" width="4" height="32" fill="#6E2D0C"/><rect x="128" y="864" width="4" height="32" fill="#6E2D0C"/><rect x="192" y="864" width="4" height="32" fill="#6E2D0C"/><rect x="256" y="864" width="4" height="32" fill="#6E2D0C"/><rect x="320" y="864" width="4" height="32" fill="#6E2D0C"/><rect x="384" y="864" width="4" height="32" fill="#6E2D0C"/><rect x="448" y="864" width="4" height="32" fill="#6E2D0C"/><rect x="512" y="864" width="4" height="32" fill="#6E2D0C"/><rect x="576" y="864" width="4" height="32" fill="#6E2D0C"/><rect x="640" y="864" width="4" height="32" fill="#6E2D0C"/><rect x="704" y="864" width="4" height="32" fill="#6E2D0C"/><rect x="768" y="864" width="4" height="32" fill="#6E2D0C"/><rect x="832" y="864" width="4" height="32" fill="#6E2D0C"/><rect x="896" y="864" width="4" height="32" fill="#6E2D0C"/><rect x="960" y="864" width="4" height="32" fill="#6E2D0C"/><rect y="896" width="1024" height="4" fill="#6E2D0C"/><rect x="32" y="896" width="4" height="32" fill="#6E2D0C"/><rect x="96" y="896" width="4" height="32" fill="#6E2D0C"/><rect x="160" y="896" width="4" height="32" fill="#6E2D0C"/><rect x="224" y="896" width="4" height="32" fill="#6E2D0C"/><rect x="288" y="896" width="4" height="32" fill="#6E2D0C"/><rect x="352" y="896" width="4" height="32" fill="#6E2D0C"/><rect x="416" y="896" width="4" height="32" fill="#6E2D0C"/><rect x="480" y="896" width="4" height="32" fill="#6E2D0C"/><rect x="544" y="896" width="4" height="32" fill="#6E2D0C"/><rect x="608" y="896" width="4" height="32" fill="#6E2D0C"/><rect x="672" y="896" width="4" height="32" fill="#6E2D0C"/><rect x="736" y="896" width="4" height="32" fill="#6E2D0C"/><rect x="800" y="896" width="4" height="32" fill="#6E2D0C"/><rect x="864" y="896" width="4" height="32" fill="#6E2D0C"/><rect x="928" y="896" width="4" height="32" fill="#6E2D0C"/><rect x="992" y="896" width="4" height="32" fill="#6E2D0C"/><rect y="928" width="1024" height="4" fill="#6E2D0C"/><rect x="0" y="928" width="4" height="32" fill="#6E2D0C"/><rect x="64" y="928" width="4" height="32" fill="#6E2D0C"/><rect x="128" y="928" width="4" height="32" fill="#6E2D0C"/><rect x="192" y="928" width="4" height="32" fill="#6E2D0C"/><rect x="256" y="928" width="4" height="32" fill="#6E2D0C"/><rect x="320" y="928" width="4" height="32" fill="#6E2D0C"/><rect x="384" y="928" width="4" height="32" fill="#6E2D0C"/><rect x="448" y="928" width="4" height="32" fill="#6E2D0C"/><rect x="512" y="928" width="4" height="32" fill="#6E2D0C"/><rect x="576" y="928" width="4" height="32" fill="#6E2D0C"/><rect x="640" y="928" width="4" height="32" fill="#6E2D0C"/><rect x="704" y="928" width="4" height="32" fill="#6E2D0C"/><rect x="768" y="928" width="4" height="32" fill="#6E2D0C"/><rect x="832" y="928" width="4" height="32" fill="#6E2D0C"/><rect x="896" y="928" width="4" height="32" fill="#6E2D0C"/><rect x="960" y="928" width="4" height="32" fill="#6E2D0C"/><rect y="960" width="1024" height="4" fill="#6E2D0C"/><rect x="32" y="960" width="4" height="32" fill="#6E2D0C"/><rect x="96" y="960" width="4" height="32" fill="#6E2D0C"/><rect x="160" y="960" width="4" height="32" fill="#6E2D0C"/><rect x="224" y="960" width="4" height="32" fill="#6E2D0C"/><rect x="288" y="960" width="4" height="32" fill="#6E2D0C"/><rect x="352" y="960" width="4" height="32" fill="#6E2D0C"/><rect x="416" y="960" width="4" height="32" fill="#6E2D0C"/><rect x="480" y="960" width="4" height="32" fill="#6E2D0C"/><rect x="544" y="960" width="4" height="32" fill="#6E2D0C"/><rect x="608" y="960" width="4" height="32" fill="#6E2D0C"/><rect x="672" y="960" width="4" height="32" fill="#6E2D0C"/><rect x="736" y="960" width="4" height="32" fill="#6E2D0C"/><rect x="800" y="960" width="4" height="32" fill="#6E2D0C"/><rect x="864" y="960" width="4" height="32" fill="#6E2D0C"/><rect x="928" y="960" width="4" height="32" fill="#6E2D0C"/><rect x="992" y="960" width="4" height="32" fill="#6E2D0C"/><rect y="992" width="1024" height="4" fill="#6E2D0C"/><rect x="0" y="992" width="4" height="32" fill="#6E2D0C"/><rect x="64" y="992" width="4" height="32" fill="#6E2D0C"/><rect x="128" y="992" width="4" height="32" fill="#6E2D0C"/><rect x="192" y="992" width="4" height="32" fill="#6E2D0C"/><rect x="256" y="992" width="4" height="32" fill="#6E2D0C"/><rect x="320" y="992" width="4" height="32" fill="#6E2D0C"/><rect x="384" y="992" width="4" height="32" fill="#6E2D0C"/><rect x="448" y="992" width="4" height="32" fill="#6E2D0C"/><rect x="512" y="992" width="4" height="32" fill="#6E2D0C"/><rect x="576" y="992" width="4" height="32" fill="#6E2D0C"/><rect x="640" y="992" width="4" height="32" fill="#6E2D0C"/><rect x="704" y="992" width="4" height="32" fill="#6E2D0C"/><rect x="768" y="992" width="4" height="32" fill="#6E2D0C"/><rect x="832" y="992" width="4" height="32" fill="#6E2D0C"/><rect x="896" y="992" width="4" height="32" fill="#6E2D0C"/><rect x="960" y="992" width="4" height="32" fill="#6E2D0C"/><g shape-rendering="crispEdges"><rect x="352" y="320" width="32" height="32" fill="#5A2A06"/><rect x="384" y="320" width="32" height="32" fill="#5A2A06"/><rect x="416" y="320" width="32" height="32" fill="#5A2A06"/><rect x="448" y="320" width="32" height="32" fill="#5A2A06"/><rect x="480" y="320" width="32" height="32" fill="#5A2A06"/><rect x="512" y="320" width="32" height="32" fill="#5A2A06"/><rect x="544" y="320" width="32" height="32" fill="#5A2A06"/><rect x="576" y="320" width="32" height="32" fill="#5A2A06"/><rect x="608" y="320" width="32" height="32" fill="#5A2A06"/><rect x="640" y="320" width="32" height="32" fill="#5A2A06"/><rect x="288" y="352" width="32" height="32" fill="#5A2A06"/><rect x="320" y="352" width="32" height="32" fill="#5A2A06"/><rect x="352" y="352" width="32" height="32" fill="#5A2A06"/><rect x="384" y="352" width="32" height="32" fill="#5A2A06"/><rect x="416" y="352" width="32" height="32" fill="#5A2A06"/><rect x="448" y="352" width="32" height="32" fill="#5A2A06"/><rect x="480" y="352" width="32" height="32" fill="#5A2A06"/><rect x="512" y="352" width="32" height="32" fill="#5A2A06"/><rect x="544" y="352" width="32" height="32" fill="#5A2A06"/><rect x="576" y="352" width="32" height="32" fill="#5A2A06"/><rect x="608" y="352" width="32" height="32" fill="#5A2A06"/><rect x="640" y="352" width="32" height="32" fill="#5A2A06"/><rect x="672" y="352" width="32" height="32" fill="#5A2A06"/><rect x="704" y="352" width="32" height="32" fill="#5A2A06"/><rect x="288" y="384" width="32" height="32" fill="#5A2A06"/><rect x="320" y="384" width="32" height="32" fill="#5A2A06"/><rect x="352" y="384" width="32" height="32" fill="#5A2A06"/><rect x="384" y="384" width="32" height="32" fill="#5A2A06"/><rect x="416" y="384" width="32" height="32" fill="#5A2A06"/><rect x="448" y="384" width="32" height="32" fill="#5A2A06"/><rect x="480" y="384" width="32" height="32" fill="#5A2A06"/><rect x="512" y="384" width="32" height="32" fill="#5A2A06"/><rect x="544" y="384" width="32" height="32" fill="#5A2A06"/><rect x="576" y="384" width="32" height="32" fill="#5A2A06"/><rect x="608" y="384" width="32" height="32" fill="#5A2A06"/><rect x="640" y="384" width="32" height="32" fill="#5A2A06"/><rect x="672" y="384" width="32" height="32" fill="#5A2A06"/><rect x="704" y="384" width="32" height="32" fill="#5A2A06"/><rect x="256" y="416" width="32" height="32" fill="#5A2A06"/><rect x="288" y="416" width="32" height="32" fill="#5A2A06"/><rect x="320" y="416" width="32" height="32" fill="#5A2A06"/><rect x="352" y="416" width="32" height="32" fill="#5A2A06"/><rect x="384" y="416" width="32" height="32" fill="#5A2A06"/><rect x="416" y="416" width="32" height="32" fill="#5A2A06"/><rect x="448" y="416" width="32" height="32" fill="#5A2A06"/><rect x="480" y="416" width="32" height="32" fill="#5A2A06"/><rect x="512" y="416" width="32" height="32" fill="#5A2A06"/><rect x="544" y="416" width="32" height="32" fill="#5A2A06"/><rect x="576" y="416" width="32" height="32" fill="#5A2A06"/><rect x="608" y="416" width="32" height="32" fill="#5A2A06"/><rect x="640" y="416" width="32" height="32" fill="#5A2A06"/><rect x="672" y="416" width="32" height="32" fill="#5A2A06"/><rect x="704" y="416" width="32" height="32" fill="#5A2A06"/><rect x="736" y="416" width="32" height="32" fill="#5A2A06"/><rect x="256" y="448" width="32" height="32" fill="#5A2A06"/><rect x="288" y="448" width="32" height="32" fill="#5A2A06"/><rect x="320" y="448" width="32" height="32" fill="#5A2A06"/><rect x="384" y="448" width="32" height="32" fill="#5A2A06"/><rect x="416" y="448" width="32" height="32" fill="#5A2A06"/><rect x="448" y="448" width="32" height="32" fill="#5A2A06"/><rect x="480" y="448" width="32" height="32" fill="#5A2A06"/><rect x="512" y="448" width="32" height="32" fill="#5A2A06"/><rect x="544" y="448" width="32" height="32" fill="#5A2A06"/><rect x="576" y="448" width="32" height="32" fill="#5A2A06"/><rect x="608" y="448" width="32" height="32" fill="#5A2A06"/><rect x="672" y="448" width="32" height="32" fill="#5A2A06"/><rect x="704" y="448" width="32" height="32" fill="#5A2A06"/><rect x="736" y="448" width="32" height="32" fill="#5A2A06"/><rect x="256" y="480" width="32" height="32" fill="#5A2A06"/><rect x="288" y="480" width="32" height="32" fill="#5A2A06"/><rect x="320" y="480" width="32" height="32" fill="#5A2A06"/><rect x="384" y="480" width="32" height="32" fill="#5A2A06"/><rect x="416" y="480" width="32" height="32" fill="#5A2A06"/><rect x="448" y="480" width="32" height="32" fill="#5A2A06"/><rect x="544" y="480" width="32" height="32" fill="#5A2A06"/><rect x="576" y="480" width="32" height="32" fill="#5A2A06"/><rect x="608" y="480" width="32" height="32" fill="#5A2A06"/><rect x="672" y="480" width="32" height="32" fill="#5A2A06"/><rect x="704" y="480" width="32" height="32" fill="#5A2A06"/><rect x="736" y="480" width="32" height="32" fill="#5A2A06"/><rect x="256" y="512" width="32" height="32" fill="#5A2A06"/><rect x="288" y="512" width="32" height="32" fill="#5A2A06"/><rect x="320" y="512" width="32" height="32" fill="#5A2A06"/><rect x="384" y="512" width="32" height="32" fill="#5A2A06"/><rect x="416" y="512" width="32" height="32" fill="#5A2A06"/><rect x="448" y="512" width="32" height="32" fill="#5A2A06"/><rect x="544" y="512" width="32" height="32" fill="#5A2A06"/><rect x="576" y="512" width="32" height="32" fill="#5A2A06"/><rect x="608" y="512" width="32" height="32" fill="#5A2A06"/><rect x="672" y="512" width="32" height="32" fill="#5A2A06"/><rect x="704" y="512" width="32" height="32" fill="#5A2A06"/><rect x="736" y="512" width="32" height="32" fill="#5A2A06"/><rect x="256" y="544" width="32" height="32" fill="#5A2A06"/><rect x="288" y="544" width="32" height="32" fill="#5A2A06"/><rect x="320" y="544" width="32" height="32" fill="#5A2A06"/><rect x="384" y="544" width="32" height="32" fill="#5A2A06"/><rect x="416" y="544" width="32" height="32" fill="#5A2A06"/><rect x="448" y="544" width="32" height="32" fill="#5A2A06"/><rect x="480" y="544" width="32" height="32" fill="#5A2A06"/><rect x="512" y="544" width="32" height="32" fill="#5A2A06"/><rect x="544" y="544" width="32" height="32" fill="#5A2A06"/><rect x="576" y="544" width="32" height="32" fill="#5A2A06"/><rect x="608" y="544" width="32" height="32" fill="#5A2A06"/><rect x="672" y="544" width="32" height="32" fill="#5A2A06"/><rect x="704" y="544" width="32" height="32" fill="#5A2A06"/><rect x="736" y="544" width="32" height="32" fill="#5A2A06"/><rect x="256" y="576" width="32" height="32" fill="#5A2A06"/><rect x="288" y="576" width="32" height="32" fill="#5A2A06"/><rect x="320" y="576" width="32" height="32" fill="#5A2A06"/><rect x="352" y="576" width="32" height="32" fill="#5A2A06"/><rect x="384" y="576" width="32" height="32" fill="#5A2A06"/><rect x="416" y="576" width="32" height="32" fill="#5A2A06"/><rect x="448" y="576" width="32" height="32" fill="#5A2A06"/><rect x="480" y="576" width="32" height="32" fill="#5A2A06"/><rect x="512" y="576" width="32" height="32" fill="#5A2A06"/><rect x="544" y="576" width="32" height="32" fill="#5A2A06"/><rect x="576" y="576" width="32" height="32" fill="#5A2A06"/><rect x="608" y="576" width="32" height="32" fill="#5A2A06"/><rect x="640" y="576" width="32" height="32" fill="#5A2A06"/><rect x="672" y="576" width="32" height="32" fill="#5A2A06"/><rect x="704" y="576" width="32" height="32" fill="#5A2A06"/><rect x="736" y="576" width="32" height="32" fill="#5A2A06"/><rect x="288" y="608" width="32" height="32" fill="#5A2A06"/><rect x="320" y="608" width="32" height="32" fill="#5A2A06"/><rect x="352" y="608" width="32" height="32" fill="#5A2A06"/><rect x="384" y="608" width="32" height="32" fill="#5A2A06"/><rect x="416" y="608" width="32" height="32" fill="#5A2A06"/><rect x="448" y="608" width="32" height="32" fill="#5A2A06"/><rect x="480" y="608" width="32" height="32" fill="#5A2A06"/><rect x="512" y="608" width="32" height="32" fill="#5A2A06"/><rect x="544" y="608" width="32" height="32" fill="#5A2A06"/><rect x="576" y="608" width="32" height="32" fill="#5A2A06"/><rect x="608" y="608" width="32" height="32" fill="#5A2A06"/><rect x="640" y="608" width="32" height="32" fill="#5A2A06"/><rect x="672" y="608" width="32" height="32" fill="#5A2A06"/><rect x="704" y="608" width="32" height="32" fill="#5A2A06"/><rect x="288" y="640" width="32" height="32" fill="#5A2A06"/><rect x="320" y="640" width="32" height="32" fill="#5A2A06"/><rect x="352" y="640" width="32" height="32" fill="#5A2A06"/><rect x="384" y="640" width="32" height="32" fill="#5A2A06"/><rect x="416" y="640" width="32" height="32" fill="#5A2A06"/><rect x="448" y="640" width="32" height="32" fill="#5A2A06"/><rect x="480" y="640" width="32" height="32" fill="#5A2A06"/><rect x="512" y="640" width="32" height="32" fill="#5A2A06"/><rect x="544" y="640" width="32" height="32" fill="#5A2A06"/><rect x="576" y="640" width="32" height="32" fill="#5A2A06"/><rect x="608" y="640" width="32" height="32" fill="#5A2A06"/><rect x="640" y="640" width="32" height="32" fill="#5A2A06"/><rect x="672" y="640" width="32" height="32" fill="#5A2A06"/><rect x="704" y="640" width="32" height="32" fill="#5A2A06"/><rect x="352" y="672" width="32" height="32" fill="#5A2A06"/><rect x="384" y="672" width="32" height="32" fill="#5A2A06"/><rect x="416" y="672" width="32" height="32" fill="#5A2A06"/><rect x="448" y="672" width="32" height="32" fill="#5A2A06"/><rect x="480" y="672" width="32" height="32" fill="#5A2A06"/><rect x="512" y="672" width="32" height="32" fill="#5A2A06"/><rect x="544" y="672" width="32" height="32" fill="#5A2A06"/><rect x="576" y="672" width="32" height="32" fill="#5A2A06"/><rect x="608" y="672" width="32" height="32" fill="#5A2A06"/><rect x="640" y="672" width="32" height="32" fill="#5A2A06"/><rect x="384" y="320" width="32" height="32" fill="#C98A00"/><rect x="416" y="320" width="32" height="32" fill="#C98A00"/><rect x="448" y="320" width="32" height="32" fill="#C98A00"/><rect x="480" y="320" width="32" height="32" fill="#C98A00"/><rect x="512" y="320" width="32" height="32" fill="#C98A00"/><rect x="544" y="320" width="32" height="32" fill="#C98A00"/><rect x="576" y="320" width="32" height="32" fill="#C98A00"/><rect x="608" y="320" width="32" height="32" fill="#C98A00"/><rect x="320" y="352" width="32" height="32" fill="#C98A00"/><rect x="352" y="352" width="32" height="32" fill="#FFD23F"/><rect x="384" y="352" width="32" height="32" fill="#FFD23F"/><rect x="416" y="352" width="32" height="32" fill="#FFD23F"/><rect x="448" y="352" width="32" height="32" fill="#FFD23F"/><rect x="480" y="352" width="32" height="32" fill="#FFD23F"/><rect x="512" y="352" width="32" height="32" fill="#C98A00"/><rect x="544" y="352" width="32" height="32" fill="#FFD23F"/><rect x="576" y="352" width="32" height="32" fill="#FFD23F"/><rect x="608" y="352" width="32" height="32" fill="#FFD23F"/><rect x="640" y="352" width="32" height="32" fill="#FFD23F"/><rect x="672" y="352" width="32" height="32" fill="#C98A00"/><rect x="288" y="384" width="32" height="32" fill="#C98A00"/><rect x="320" y="384" width="32" height="32" fill="#FFD23F"/><rect x="352" y="384" width="32" height="32" fill="#FFD23F"/><rect x="384" y="384" width="32" height="32" fill="#FFF0A8"/><rect x="448" y="384" width="32" height="32" fill="#FFD23F"/><rect x="480" y="384" width="32" height="32" fill="#FFF0A8"/><rect x="512" y="384" width="32" height="32" fill="#FFD23F"/><rect x="544" y="384" width="32" height="32" fill="#FFD23F"/><rect x="608" y="384" width="32" height="32" fill="#FFF0A8"/><rect x="640" y="384" width="32" height="32" fill="#FFD23F"/><rect x="672" y="384" width="32" height="32" fill="#FFD23F"/><rect x="704" y="384" width="32" height="32" fill="#C98A00"/><rect x="288" y="416" width="32" height="32" fill="#FFD23F"/><rect x="320" y="416" width="32" height="32" fill="#FFD23F"/><rect x="416" y="416" width="32" height="32" fill="#C98A00"/><rect x="448" y="416" width="32" height="32" fill="#FFD23F"/><rect x="480" y="416" width="32" height="32" fill="#FFF0A8"/><rect x="512" y="416" width="32" height="32" fill="#FFF0A8"/><rect x="544" y="416" width="32" height="32" fill="#FFD23F"/><rect x="576" y="416" width="32" height="32" fill="#C98A00"/><rect x="672" y="416" width="32" height="32" fill="#FFD23F"/><rect x="704" y="416" width="32" height="32" fill="#FFD23F"/><rect x="256" y="448" width="32" height="32" fill="#C98A00"/><rect x="288" y="448" width="32" height="32" fill="#FFD23F"/><rect x="320" y="448" width="32" height="32" fill="#FFF0A8"/><rect x="416" y="448" width="32" height="32" fill="#FFD23F"/><rect x="448" y="448" width="32" height="32" fill="#FFF0A8"/><rect x="544" y="448" width="32" height="32" fill="#FFF0A8"/><rect x="576" y="448" width="32" height="32" fill="#FFD23F"/><rect x="672" y="448" width="32" height="32" fill="#FFF0A8"/><rect x="704" y="448" width="32" height="32" fill="#FFD23F"/><rect x="736" y="448" width="32" height="32" fill="#C98A00"/><rect x="256" y="480" width="32" height="32" fill="#C98A00"/><rect x="288" y="480" width="32" height="32" fill="#FFD23F"/><rect x="384" y="480" width="32" height="32" fill="#C98A00"/><rect x="416" y="480" width="32" height="32" fill="#FFD23F"/><rect x="448" y="480" width="32" height="32" fill="#FFF0A8"/><rect x="544" y="480" width="32" height="32" fill="#FFF0A8"/><rect x="576" y="480" width="32" height="32" fill="#FFD23F"/><rect x="608" y="480" width="32" height="32" fill="#C98A00"/><rect x="704" y="480" width="32" height="32" fill="#FFD23F"/><rect x="736" y="480" width="32" height="32" fill="#C98A00"/><rect x="256" y="512" width="32" height="32" fill="#C98A00"/><rect x="288" y="512" width="32" height="32" fill="#FFD23F"/><rect x="384" y="512" width="32" height="32" fill="#C98A00"/><rect x="416" y="512" width="32" height="32" fill="#FFD23F"/><rect x="448" y="512" width="32" height="32" fill="#FFF0A8"/><rect x="544" y="512" width="32" height="32" fill="#FFF0A8"/><rect x="576" y="512" width="32" height="32" fill="#FFD23F"/><rect x="608" y="512" width="32" height="32" fill="#C98A00"/><rect x="704" y="512" width="32" height="32" fill="#FFD23F"/><rect x="736" y="512" width="32" height="32" fill="#C98A00"/><rect x="256" y="544" width="32" height="32" fill="#C98A00"/><rect x="288" y="544" width="32" height="32" fill="#FFD23F"/><rect x="320" y="544" width="32" height="32" fill="#FFF0A8"/><rect x="416" y="544" width="32" height="32" fill="#FFD23F"/><rect x="448" y="544" width="32" height="32" fill="#FFF0A8"/><rect x="544" y="544" width="32" height="32" fill="#FFF0A8"/><rect x="576" y="544" width="32" height="32" fill="#FFD23F"/><rect x="672" y="544" width="32" height="32" fill="#FFF0A8"/><rect x="704" y="544" width="32" height="32" fill="#FFD23F"/><rect x="736" y="544" width="32" height="32" fill="#C98A00"/><rect x="288" y="576" width="32" height="32" fill="#FFD23F"/><rect x="320" y="576" width="32" height="32" fill="#FFD23F"/><rect x="416" y="576" width="32" height="32" fill="#C98A00"/><rect x="448" y="576" width="32" height="32" fill="#FFD23F"/><rect x="480" y="576" width="32" height="32" fill="#FFF0A8"/><rect x="512" y="576" width="32" height="32" fill="#FFF0A8"/><rect x="544" y="576" width="32" height="32" fill="#FFD23F"/><rect x="576" y="576" width="32" height="32" fill="#C98A00"/><rect x="672" y="576" width="32" height="32" fill="#FFD23F"/><rect x="704" y="576" width="32" height="32" fill="#FFD23F"/><rect x="288" y="608" width="32" height="32" fill="#C98A00"/><rect x="320" y="608" width="32" height="32" fill="#FFD23F"/><rect x="352" y="608" width="32" height="32" fill="#FFD23F"/><rect x="384" y="608" width="32" height="32" fill="#FFF0A8"/><rect x="448" y="608" width="32" height="32" fill="#FFD23F"/><rect x="480" y="608" width="32" height="32" fill="#FFF0A8"/><rect x="512" y="608" width="32" height="32" fill="#FFD23F"/><rect x="544" y="608" width="32" height="32" fill="#FFD23F"/><rect x="608" y="608" width="32" height="32" fill="#FFF0A8"/><rect x="640" y="608" width="32" height="32" fill="#FFD23F"/><rect x="672" y="608" width="32" height="32" fill="#FFD23F"/><rect x="704" y="608" width="32" height="32" fill="#C98A00"/><rect x="320" y="640" width="32" height="32" fill="#C98A00"/><rect x="352" y="640" width="32" height="32" fill="#FFD23F"/><rect x="384" y="640" width="32" height="32" fill="#FFD23F"/><rect x="416" y="640" width="32" height="32" fill="#FFD23F"/><rect x="448" y="640" width="32" height="32" fill="#FFD23F"/><rect x="480" y="640" width="32" height="32" fill="#FFD23F"/><rect x="512" y="640" width="32" height="32" fill="#C98A00"/><rect x="544" y="640" width="32" height="32" fill="#FFD23F"/><rect x="576" y="640" width="32" height="32" fill="#FFD23F"/><rect x="608" y="640" width="32" height="32" fill="#FFD23F"/><rect x="640" y="640" width="32" height="32" fill="#FFD23F"/><rect x="672" y="640" width="32" height="32" fill="#C98A00"/><rect x="384" y="672" width="32" height="32" fill="#C98A00"/><rect x="416" y="672" width="32" height="32" fill="#C98A00"/><rect x="448" y="672" width="32" height="32" fill="#C98A00"/><rect x="480" y="672" width="32" height="32" fill="#C98A00"/><rect x="512" y="672" width="32" height="32" fill="#C98A00"/><rect x="544" y="672" width="32" height="32" fill="#C98A00"/><rect x="576" y="672" width="32" height="32" fill="#C98A00"/><rect x="608" y="672" width="32" height="32" fill="#C98A00"/></g></svg>
