<svg xmlns="http://www.w3.org/2000/svg" viewBox="0 0 1024 1024" width="1024" height="1024"><defs><filter id="ltg" x="-40%" y="-40%" width="180%" height="180%"><feGaussianBlur stdDeviation="12" result="b"/><feComponentTransfer in="b" result="c"><feFuncA type="linear" slope="1"/></feComponentTransfer><feMerge><feMergeNode in="c"/><feMergeNode in="SourceGraphic"/></feMerge></filter><radialGradient id="ltv" cx=".5" cy=".5" r=".75"><stop offset=".5" stop-color="#000" stop-opacity="0"/><stop offset="1" stop-color="#000" stop-opacity=".6"/></radialGradient></defs><rect width="1024" height="1024" fill="#3B3A26"/><g transform="translate(0 0)" opacity=".45"><circle r="20" fill="#8A6A3A"/><circle r="9" fill="#C9A060"/><ellipse cx="28" cy="0" rx="13" ry="8" transform="rotate(0 28 0)" fill="#5D6B3A"/><ellipse cx="8.7" cy="26.6" rx="13" ry="8" transform="rotate(72 8.7 26.6)" fill="#5D6B3A"/><ellipse cx="-22.7" cy="16.5" rx="13" ry="8" transform="rotate(144 -22.7 16.5)" fill="#5D6B3A"/><ellipse cx="-22.7" cy="-16.5" rx="13" ry="8" transform="rotate(216 -22.7 -16.5)" fill="#5D6B3A"/><ellipse cx="8.7" cy="-26.6" rx="13" ry="8" transform="rotate(288 8.7 -26.6)" fill="#5D6B3A"/></g><g transform="translate(128 0)" opacity=".45"><circle r="20" fill="#8A6A3A"/><circle r="9" fill="#C9A060"/><ellipse cx="28" cy="0" rx="13" ry="8" transform="rotate(0 28 0)" fill="#5D6B3A"/><ellipse cx="8.7" cy="26.6" rx="13" ry="8" transform="rotate(72 8.7 26.6)" fill="#5D6B3A"/><ellipse cx="-22.7" cy="16.5" rx="13" ry="8" transform="rotate(144 -22.7 16.5)" fill="#5D6B3A"/><ellipse cx="-22.7" cy="-16.5" rx="13" ry="8" transform="rotate(216 -22.7 -16.5)" fill="#5D6B3A"/><ellipse cx="8.7" cy="-26.6" rx="13" ry="8" transform="rotate(288 8.7 -26.6)" fill="#5D6B3A"/></g><g transform="translate(256 0)" opacity=".45"><circle r="20" fill="#8A6A3A"/><circle r="9" fill="#C9A060"/><ellipse cx="28" cy="0" rx="13" ry="8" transform="rotate(0 28 0)" fill="#5D6B3A"/><ellipse cx="8.7" cy="26.6" rx="13" ry="8" transform="rotate(72 8.7 26.6)" fill="#5D6B3A"/><ellipse cx="-22.7" cy="16.5" rx="13" ry="8" transform="rotate(144 -22.7 16.5)" fill="#5D6B3A"/><ellipse cx="-22.7" cy="-16.5" rx="13" ry="8" transform="rotate(216 -22.7 -16.5)" fill="#5D6B3A"/><ellipse cx="8.7" cy="-26.6" rx="13" ry="8" transform="rotate(288 8.7 -26.6)" fill="#5D6B3A"/></g><g transform="translate(384 0)" opacity=".45"><circle r="20" fill="#8A6A3A"/><circle r="9" fill="#C9A060"/><ellipse cx="28" cy="0" rx="13" ry="8" transform="rotate(0 28 0)" fill="#5D6B3A"/><ellipse cx="8.7" cy="26.6" rx="13" ry="8" transform="rotate(72 8.7 26.6)" fill="#5D6B3A"/><ellipse cx="-22.7" cy="16.5" rx="13" ry="8" transform="rotate(144 -22.7 16.5)" fill="#5D6B3A"/><ellipse cx="-22.7" cy="-16.5" rx="13" ry="8" transform="rotate(216 -22.7 -16.5)" fill="#5D6B3A"/><ellipse cx="8.7" cy="-26.6" rx="13" ry="8" transform="rotate(288 8.7 -26.6)" fill="#5D6B3A"/></g><g transform="translate(512 0)" opacity=".45"><circle r="20" fill="#8A6A3A"/><circle r="9" fill="#C9A060"/><ellipse cx="28" cy="0" rx="13" ry="8" transform="rotate(0 28 0)" fill="#5D6B3A"/><ellipse cx="8.7" cy="26.6" rx="13" ry="8" transform="rotate(72 8.7 26.6)" fill="#5D6B3A"/><ellipse cx="-22.7" cy="16.5" rx="13" ry="8" transform="rotate(144 -22.7 16.5)" fill="#5D6B3A"/><ellipse cx="-22.7" cy="-16.5" rx="13" ry="8" transform="rotate(216 -22.7 -16.5)" fill="#5D6B3A"/><ellipse cx="8.7" cy="-26.6" rx="13" ry="8" transform="rotate(288 8.7 -26.6)" fill="#5D6B3A"/></g><g transform="translate(640 0)" opacity=".45"><circle r="20" fill="#8A6A3A"/><circle r="9" fill="#C9A060"/><ellipse cx="28" cy="0" rx="13" ry="8" transform="rotate(0 28 0)" fill="#5D6B3A"/><ellipse cx="8.7" cy="26.6" rx="13" ry="8" transform="rotate(72 8.7 26.6)" fill="#5D6B3A"/><ellipse cx="-22.7" cy="16.5" rx="13" ry="8" transform="rotate(144 -22.7 16.5)" fill="#5D6B3A"/><ellipse cx="-22.7" cy="-16.5" rx="13" ry="8" transform="rotate(216 -22.7 -16.5)" fill="#5D6B3A"/><ellipse cx="8.7" cy="-26.6" rx="13" ry="8" transform="rotate(288 8.7 -26.6)" fill="#5D6B3A"/></g><g transform="translate(768 0)" opacity=".45"><circle r="20" fill="#8A6A3A"/><circle r="9" fill="#C9A060"/><ellipse cx="28" cy="0" rx="13" ry="8" transform="rotate(0 28 0)" fill="#5D6B3A"/><ellipse cx="8.7" cy="26.6" rx="13" ry="8" transform="rotate(72 8.7 26.6)" fill="#5D6B3A"/><ellipse cx="-22.7" cy="16.5" rx="13" ry="8" transform="rotate(144 -22.7 16.5)" fill="#5D6B3A"/><ellipse cx="-22.7" cy="-16.5" rx="13" ry="8" transform="rotate(216 -22.7 -16.5)" fill="#5D6B3A"/><ellipse cx="8.7" cy="-26.6" rx="13" ry="8" transform="rotate(288 8.7 -26.6)" fill="#5D6B3A"/></g><g transform="translate(896 0)" opacity=".45"><circle r="20" fill="#8A6A3A"/><circle r="9" fill="#C9A060"/><ellipse cx="28" cy="0" rx="13" ry="8" transform="rotate(0 28 0)" fill="#5D6B3A"/><ellipse cx="8.7" cy="26.6" rx="13" ry="8" transform="rotate(72 8.7 26.6)" fill="#5D6B3A"/><ellipse cx="-22.7" cy="16.5" rx="13" ry="8" transform="rotate(144 -22.7 16.5)" fill="#5D6B3A"/><ellipse cx="-22.7" cy="-16.5" rx="13" ry="8" transform="rotate(216 -22.7 -16.5)" fill="#5D6B3A"/><ellipse cx="8.7" cy="-26.6" rx="13" ry="8" transform="rotate(288 8.7 -26.6)" fill="#5D6B3A"/></g><g transform="translate(1024 0)" opacity=".45"><circle r="20" fill="#8A6A3A"/><circle r="9" fill="#C9A060"/><ellipse cx="28" cy="0" rx="13" ry="8" transform="rotate(0 28 0)" fill="#5D6B3A"/><ellipse cx="8.7" cy="26.6" rx="13" ry="8" transform="rotate(72 8.7 26.6)" fill="#5D6B3A"/><ellipse cx="-22.7" cy="16.5" rx="13" ry="8" transform="rotate(144 -22.7 16.5)" fill="#5D6B3A"/><ellipse cx="-22.7" cy="-16.5" rx="13" ry="8" transform="rotate(216 -22.7 -16.5)" fill="#5D6B3A"/><ellipse cx="8.7" cy="-26.6" rx="13" ry="8" transform="rotate(288 8.7 -26.6)" fill="#5D6B3A"/></g><g transform="translate(64 128)" opacity=".45"><circle r="20" fill="#8A6A3A"/><circle r="9" fill="#C9A060"/><ellipse cx="28" cy="0" rx="13" ry="8" transform="rotate(0 28 0)" fill="#5D6B3A"/><ellipse cx="8.7" cy="26.6" rx="13" ry="8" transform="rotate(72 8.7 26.6)" fill="#5D6B3A"/><ellipse cx="-22.7" cy="16.5" rx="13" ry="8" transform="rotate(144 -22.7 16.5)" fill="#5D6B3A"/><ellipse cx="-22.7" cy="-16.5" rx="13" ry="8" transform="rotate(216 -22.7 -16.5)" fill="#5D6B3A"/><ellipse cx="8.7" cy="-26.6" rx="13" ry="8" transform="rotate(288 8.7 -26.6)" fill="#5D6B3A"/></g><g transform="translate(192 128)" opacity=".45"><circle r="20" fill="#8A6A3A"/><circle r="9" fill="#C9A060"/><ellipse cx="28" cy="0" rx="13" ry="8" transform="rotate(0 28 0)" fill="#5D6B3A"/><ellipse cx="8.7" cy="26.6" rx="13" ry="8" transform="rotate(72 8.7 26.6)" fill="#5D6B3A"/><ellipse cx="-22.7" cy="16.5" rx="13" ry="8" transform="rotate(144 -22.7 16.5)" fill="#5D6B3A"/><ellipse cx="-22.7" cy="-16.5" rx="13" ry="8" transform="rotate(216 -22.7 -16.5)" fill="#5D6B3A"/><ellipse cx="8.7" cy="-26.6" rx="13" ry="8" transform="rotate(288 8.7 -26.6)" fill="#5D6B3A"/></g><g transform="translate(320 128)" opacity=".45"><circle r="20" fill="#8A6A3A"/><circle r="9" fill="#C9A060"/><ellipse cx="28" cy="0" rx="13" ry="8" transform="rotate(0 28 0)" fill="#5D6B3A"/><ellipse cx="8.7" cy="26.6" rx="13" ry="8" transform="rotate(72 8.7 26.6)" fill="#5D6B3A"/><ellipse cx="-22.7" cy="16.5" rx="13" ry="8" transform="rotate(144 -22.7 16.5)" fill="#5D6B3A"/><ellipse cx="-22.7" cy="-16.5" rx="13" ry="8" transform="rotate(216 -22.7 -16.5)" fill="#5D6B3A"/><ellipse cx="8.7" cy="-26.6" rx="13" ry="8" transform="rotate(288 8.7 -26.6)" fill="#5D6B3A"/></g><g transform="translate(448 128)" opacity=".45"><circle r="20" fill="#8A6A3A"/><circle r="9" fill="#C9A060"/><ellipse cx="28" cy="0" rx="13" ry="8" transform="rotate(0 28 0)" fill="#5D6B3A"/><ellipse cx="8.7" cy="26.6" rx="13" ry="8" transform="rotate(72 8.7 26.6)" fill="#5D6B3A"/><ellipse cx="-22.7" cy="16.5" rx="13" ry="8" transform="rotate(144 -22.7 16.5)" fill="#5D6B3A"/><ellipse cx="-22.7" cy="-16.5" rx="13" ry="8" transform="rotate(216 -22.7 -16.5)" fill="#5D6B3A"/><ellipse cx="8.7" cy="-26.6" rx="13" ry="8" transform="rotate(288 8.7 -26.6)" fill="#5D6B3A"/></g><g transform="translate(576 128)" opacity=".45"><circle r="20" fill="#8A6A3A"/><circle r="9" fill="#C9A060"/><ellipse cx="28" cy="0" rx="13" ry="8" transform="rotate(0 28 0)" fill="#5D6B3A"/><ellipse cx="8.7" cy="26.6" rx="13" ry="8" transform="rotate(72 8.7 26.6)" fill="#5D6B3A"/><ellipse cx="-22.7" cy="16.5" rx="13" ry="8" transform="rotate(144 -22.7 16.5)" fill="#5D6B3A"/><ellipse cx="-22.7" cy="-16.5" rx="13" ry="8" transform="rotate(216 -22.7 -16.5)" fill="#5D6B3A"/><ellipse cx="8.7" cy="-26.6" rx="13" ry="8" transform="rotate(288 8.7 -26.6)" fill="#5D6B3A"/></g><g transform="translate(704 128)" opacity=".45"><circle r="20" fill="#8A6A3A"/><circle r="9" fill="#C9A060"/><ellipse cx="28" cy="0" rx="13" ry="8" transform="rotate(0 28 0)" fill="#5D6B3A"/><ellipse cx="8.7" cy="26.6" rx="13" ry="8" transform="rotate(72 8.7 26.6)" fill="#5D6B3A"/><ellipse cx="-22.7" cy="16.5" rx="13" ry="8" transform="rotate(144 -22.7 16.5)" fill="#5D6B3A"/><ellipse cx="-22.7" cy="-16.5" rx="13" ry="8" transform="rotate(216 -22.7 -16.5)" fill="#5D6B3A"/><ellipse cx="8.7" cy="-26.6" rx="13" ry="8" transform="rotate(288 8.7 -26.6)" fill="#5D6B3A"/></g><g transform="translate(832 128)" opacity=".45"><circle r="20" fill="#8A6A3A"/><circle r="9" fill="#C9A060"/><ellipse cx="28" cy="0" rx="13" ry="8" transform="rotate(0 28 0)" fill="#5D6B3A"/><ellipse cx="8.7" cy="26.6" rx="13" ry="8" transform="rotate(72 8.7 26.6)" fill="#5D6B3A"/><ellipse cx="-22.7" cy="16.5" rx="13" ry="8" transform="rotate(144 -22.7 16.5)" fill="#5D6B3A"/><ellipse cx="-22.7" cy="-16.5" rx="13" ry="8" transform="rotate(216 -22.7 -16.5)" fill="#5D6B3A"/><ellipse cx="8.7" cy="-26.6" rx="13" ry="8" transform="rotate(288 8.7 -26.6)" fill="#5D6B3A"/></g><g transform="translate(960 128)" opacity=".45"><circle r="20" fill="#8A6A3A"/><circle r="9" fill="#C9A060"/><ellipse cx="28" cy="0" rx="13" ry="8" transform="rotate(0 28 0)" fill="#5D6B3A"/><ellipse cx="8.7" cy="26.6" rx="13" ry="8" transform="rotate(72 8.7 26.6)" fill="#5D6B3A"/><ellipse cx="-22.7" cy="16.5" rx="13" ry="8" transform="rotate(144 -22.7 16.5)" fill="#5D6B3A"/><ellipse cx="-22.7" cy="-16.5" rx="13" ry="8" transform="rotate(216 -22.7 -16.5)" fill="#5D6B3A"/><ellipse cx="8.7" cy="-26.6" rx="13" ry="8" transform="rotate(288 8.7 -26.6)" fill="#5D6B3A"/></g><g transform="translate(0 256)" opacity=".45"><circle r="20" fill="#8A6A3A"/><circle r="9" fill="#C9A060"/><ellipse cx="28" cy="0" rx="13" ry="8" transform="rotate(0 28 0)" fill="#5D6B3A"/><ellipse cx="8.7" cy="26.6" rx="13" ry="8" transform="rotate(72 8.7 26.6)" fill="#5D6B3A"/><ellipse cx="-22.7" cy="16.5" rx="13" ry="8" transform="rotate(144 -22.7 16.5)" fill="#5D6B3A"/><ellipse cx="-22.7" cy="-16.5" rx="13" ry="8" transform="rotate(216 -22.7 -16.5)" fill="#5D6B3A"/><ellipse cx="8.7" cy="-26.6" rx="13" ry="8" transform="rotate(288 8.7 -26.6)" fill="#5D6B3A"/></g><g transform="translate(128 256)" opacity=".45"><circle r="20" fill="#8A6A3A"/><circle r="9" fill="#C9A060"/><ellipse cx="28" cy="0" rx="13" ry="8" transform="rotate(0 28 0)" fill="#5D6B3A"/><ellipse cx="8.7" cy="26.6" rx="13" ry="8" transform="rotate(72 8.7 26.6)" fill="#5D6B3A"/><ellipse cx="-22.7" cy="16.5" rx="13" ry="8" transform="rotate(144 -22.7 16.5)" fill="#5D6B3A"/><ellipse cx="-22.7" cy="-16.5" rx="13" ry="8" transform="rotate(216 -22.7 -16.5)" fill="#5D6B3A"/><ellipse cx="8.7" cy="-26.6" rx="13" ry="8" transform="rotate(288 8.7 -26.6)" fill="#5D6B3A"/></g><g transform="translate(256 256)" opacity=".45"><circle r="20" fill="#8A6A3A"/><circle r="9" fill="#C9A060"/><ellipse cx="28" cy="0" rx="13" ry="8" transform="rotate(0 28 0)" fill="#5D6B3A"/><ellipse cx="8.7" cy="26.6" rx="13" ry="8" transform="rotate(72 8.7 26.6)" fill="#5D6B3A"/><ellipse cx="-22.7" cy="16.5" rx="13" ry="8" transform="rotate(144 -22.7 16.5)" fill="#5D6B3A"/><ellipse cx="-22.7" cy="-16.5" rx="13" ry="8" transform="rotate(216 -22.7 -16.5)" fill="#5D6B3A"/><ellipse cx="8.7" cy="-26.6" rx="13" ry="8" transform="rotate(288 8.7 -26.6)" fill="#5D6B3A"/></g><g transform="translate(384 256)" opacity=".45"><circle r="20" fill="#8A6A3A"/><circle r="9" fill="#C9A060"/><ellipse cx="28" cy="0" rx="13" ry="8" transform="rotate(0 28 0)" fill="#5D6B3A"/><ellipse cx="8.7" cy="26.6" rx="13" ry="8" transform="rotate(72 8.7 26.6)" fill="#5D6B3A"/><ellipse cx="-22.7" cy="16.5" rx="13" ry="8" transform="rotate(144 -22.7 16.5)" fill="#5D6B3A"/><ellipse cx="-22.7" cy="-16.5" rx="13" ry="8" transform="rotate(216 -22.7 -16.5)" fill="#5D6B3A"/><ellipse cx="8.7" cy="-26.6" rx="13" ry="8" transform="rotate(288 8.7 -26.6)" fill="#5D6B3A"/></g><g transform="translate(512 256)" opacity=".45"><circle r="20" fill="#8A6A3A"/><circle r="9" fill="#C9A060"/><ellipse cx="28" cy="0" rx="13" ry="8" transform="rotate(0 28 0)" fill="#5D6B3A"/><ellipse cx="8.7" cy="26.6" rx="13" ry="8" transform="rotate(72 8.7 26.6)" fill="#5D6B3A"/><ellipse cx="-22.7" cy="16.5" rx="13" ry="8" transform="rotate(144 -22.7 16.5)" fill="#5D6B3A"/><ellipse cx="-22.7" cy="-16.5" rx="13" ry="8" transform="rotate(216 -22.7 -16.5)" fill="#5D6B3A"/><ellipse cx="8.7" cy="-26.6" rx="13" ry="8" transform="rotate(288 8.7 -26.6)" fill="#5D6B3A"/></g><g transform="translate(640 256)" opacity=".45"><circle r="20" fill="#8A6A3A"/><circle r="9" fill="#C9A060"/><ellipse cx="28" cy="0" rx="13" ry="8" transform="rotate(0 28 0)" fill="#5D6B3A"/><ellipse cx="8.7" cy="26.6" rx="13" ry="8" transform="rotate(72 8.7 26.6)" fill="#5D6B3A"/><ellipse cx="-22.7" cy="16.5" rx="13" ry="8" transform="rotate(144 -22.7 16.5)" fill="#5D6B3A"/><ellipse cx="-22.7" cy="-16.5" rx="13" ry="8" transform="rotate(216 -22.7 -16.5)" fill="#5D6B3A"/><ellipse cx="8.7" cy="-26.6" rx="13" ry="8" transform="rotate(288 8.7 -26.6)" fill="#5D6B3A"/></g><g transform="translate(768 256)" opacity=".45"><circle r="20" fill="#8A6A3A"/><circle r="9" fill="#C9A060"/><ellipse cx="28" cy="0" rx="13" ry="8" transform="rotate(0 28 0)" fill="#5D6B3A"/><ellipse cx="8.7" cy="26.6" rx="13" ry="8" transform="rotate(72 8.7 26.6)" fill="#5D6B3A"/><ellipse cx="-22.7" cy="16.5" rx="13" ry="8" transform="rotate(144 -22.7 16.5)" fill="#5D6B3A"/><ellipse cx="-22.7" cy="-16.5" rx="13" ry="8" transform="rotate(216 -22.7 -16.5)" fill="#5D6B3A"/><ellipse cx="8.7" cy="-26.6" rx="13" ry="8" transform="rotate(288 8.7 -26.6)" fill="#5D6B3A"/></g><g transform="translate(896 256)" opacity=".45"><circle r="20" fill="#8A6A3A"/><circle r="9" fill="#C9A060"/><ellipse cx="28" cy="0" rx="13" ry="8" transform="rotate(0 28 0)" fill="#5D6B3A"/><ellipse cx="8.7" cy="26.6" rx="13" ry="8" transform="rotate(72 8.7 26.6)" fill="#5D6B3A"/><ellipse cx="-22.7" cy="16.5" rx="13" ry="8" transform="rotate(144 -22.7 16.5)" fill="#5D6B3A"/><ellipse cx="-22.7" cy="-16.5" rx="13" ry="8" transform="rotate(216 -22.7 -16.5)" fill="#5D6B3A"/><ellipse cx="8.7" cy="-26.6" rx="13" ry="8" transform="rotate(288 8.7 -26.6)" fill="#5D6B3A"/></g><g transform="translate(1024 256)" opacity=".45"><circle r="20" fill="#8A6A3A"/><circle r="9" fill="#C9A060"/><ellipse cx="28" cy="0" rx="13" ry="8" transform="rotate(0 28 0)" fill="#5D6B3A"/><ellipse cx="8.7" cy="26.6" rx="13" ry="8" transform="rotate(72 8.7 26.6)" fill="#5D6B3A"/><ellipse cx="-22.7" cy="16.5" rx="13" ry="8" transform="rotate(144 -22.7 16.5)" fill="#5D6B3A"/><ellipse cx="-22.7" cy="-16.5" rx="13" ry="8" transform="rotate(216 -22.7 -16.5)" fill="#5D6B3A"/><ellipse cx="8.7" cy="-26.6" rx="13" ry="8" transform="rotate(288 8.7 -26.6)" fill="#5D6B3A"/></g><g transform="translate(64 384)" opacity=".45"><circle r="20" fill="#8A6A3A"/><circle r="9" fill="#C9A060"/><ellipse cx="28" cy="0" rx="13" ry="8" transform="rotate(0 28 0)" fill="#5D6B3A"/><ellipse cx="8.7" cy="26.6" rx="13" ry="8" transform="rotate(72 8.7 26.6)" fill="#5D6B3A"/><ellipse cx="-22.7" cy="16.5" rx="13" ry="8" transform="rotate(144 -22.7 16.5)" fill="#5D6B3A"/><ellipse cx="-22.7" cy="-16.5" rx="13" ry="8" transform="rotate(216 -22.7 -16.5)" fill="#5D6B3A"/><ellipse cx="8.7" cy="-26.6" rx="13" ry="8" transform="rotate(288 8.7 -26.6)" fill="#5D6B3A"/></g><g transform="translate(192 384)" opacity=".45"><circle r="20" fill="#8A6A3A"/><circle r="9" fill="#C9A060"/><ellipse cx="28" cy="0" rx="13" ry="8" transform="rotate(0 28 0)" fill="#5D6B3A"/><ellipse cx="8.7" cy="26.6" rx="13" ry="8" transform="rotate(72 8.7 26.6)" fill="#5D6B3A"/><ellipse cx="-22.7" cy="16.5" rx="13" ry="8" transform="rotate(144 -22.7 16.5)" fill="#5D6B3A"/><ellipse cx="-22.7" cy="-16.5" rx="13" ry="8" transform="rotate(216 -22.7 -16.5)" fill="#5D6B3A"/><ellipse cx="8.7" cy="-26.6" rx="13" ry="8" transform="rotate(288 8.7 -26.6)" fill="#5D6B3A"/></g><g transform="translate(320 384)" opacity=".45"><circle r="20" fill="#8A6A3A"/><circle r="9" fill="#C9A060"/><ellipse cx="28" cy="0" rx="13" ry="8" transform="rotate(0 28 0)" fill="#5D6B3A"/><ellipse cx="8.7" cy="26.6" rx="13" ry="8" transform="rotate(72 8.7 26.6)" fill="#5D6B3A"/><ellipse cx="-22.7" cy="16.5" rx="13" ry="8" transform="rotate(144 -22.7 16.5)" fill="#5D6B3A"/><ellipse cx="-22.7" cy="-16.5" rx="13" ry="8" transform="rotate(216 -22.7 -16.5)" fill="#5D6B3A"/><ellipse cx="8.7" cy="-26.6" rx="13" ry="8" transform="rotate(288 8.7 -26.6)" fill="#5D6B3A"/></g><g transform="translate(448 384)" opacity=".45"><circle r="20" fill="#8A6A3A"/><circle r="9" fill="#C9A060"/><ellipse cx="28" cy="0" rx="13" ry="8" transform="rotate(0 28 0)" fill="#5D6B3A"/><ellipse cx="8.7" cy="26.6" rx="13" ry="8" transform="rotate(72 8.7 26.6)" fill="#5D6B3A"/><ellipse cx="-22.7" cy="16.5" rx="13" ry="8" transform="rotate(144 -22.7 16.5)" fill="#5D6B3A"/><ellipse cx="-22.7" cy="-16.5" rx="13" ry="8" transform="rotate(216 -22.7 -16.5)" fill="#5D6B3A"/><ellipse cx="8.7" cy="-26.6" rx="13" ry="8" transform="rotate(288 8.7 -26.6)" fill="#5D6B3A"/></g><g transform="translate(576 384)" opacity=".45"><circle r="20" fill="#8A6A3A"/><circle r="9" fill="#C9A060"/><ellipse cx="28" cy="0" rx="13" ry="8" transform="rotate(0 28 0)" fill="#5D6B3A"/><ellipse cx="8.7" cy="26.6" rx="13" ry="8" transform="rotate(72 8.7 26.6)" fill="#5D6B3A"/><ellipse cx="-22.7" cy="16.5" rx="13" ry="8" transform="rotate(144 -22.7 16.5)" fill="#5D6B3A"/><ellipse cx="-22.7" cy="-16.5" rx="13" ry="8" transform="rotate(216 -22.7 -16.5)" fill="#5D6B3A"/><ellipse cx="8.7" cy="-26.6" rx="13" ry="8" transform="rotate(288 8.7 -26.6)" fill="#5D6B3A"/></g><g transform="translate(704 384)" opacity=".45"><circle r="20" fill="#8A6A3A"/><circle r="9" fill="#C9A060"/><ellipse cx="28" cy="0" rx="13" ry="8" transform="rotate(0 28 0)" fill="#5D6B3A"/><ellipse cx="8.7" cy="26.6" rx="13" ry="8" transform="rotate(72 8.7 26.6)" fill="#5D6B3A"/><ellipse cx="-22.7" cy="16.5" rx="13" ry="8" transform="rotate(144 -22.7 16.5)" fill="#5D6B3A"/><ellipse cx="-22.7" cy="-16.5" rx="13" ry="8" transform="rotate(216 -22.7 -16.5)" fill="#5D6B3A"/><ellipse cx="8.7" cy="-26.6" rx="13" ry="8" transform="rotate(288 8.7 -26.6)" fill="#5D6B3A"/></g><g transform="translate(832 384)" opacity=".45"><circle r="20" fill="#8A6A3A"/><circle r="9" fill="#C9A060"/><ellipse cx="28" cy="0" rx="13" ry="8" transform="rotate(0 28 0)" fill="#5D6B3A"/><ellipse cx="8.7" cy="26.6" rx="13" ry="8" transform="rotate(72 8.7 26.6)" fill="#5D6B3A"/><ellipse cx="-22.7" cy="16.5" rx="13" ry="8" transform="rotate(144 -22.7 16.5)" fill="#5D6B3A"/><ellipse cx="-22.7" cy="-16.5" rx="13" ry="8" transform="rotate(216 -22.7 -16.5)" fill="#5D6B3A"/><ellipse cx="8.7" cy="-26.6" rx="13" ry="8" transform="rotate(288 8.7 -26.6)" fill="#5D6B3A"/></g><g transform="translate(960 384)" opacity=".45"><circle r="20" fill="#8A6A3A"/><circle r="9" fill="#C9A060"/><ellipse cx="28" cy="0" rx="13" ry="8" transform="rotate(0 28 0)" fill="#5D6B3A"/><ellipse cx="8.7" cy="26.6" rx="13" ry="8" transform="rotate(72 8.7 26.6)" fill="#5D6B3A"/><ellipse cx="-22.7" cy="16.5" rx="13" ry="8" transform="rotate(144 -22.7 16.5)" fill="#5D6B3A"/><ellipse cx="-22.7" cy="-16.5" rx="13" ry="8" transform="rotate(216 -22.7 -16.5)" fill="#5D6B3A"/><ellipse cx="8.7" cy="-26.6" rx="13" ry="8" transform="rotate(288 8.7 -26.6)" fill="#5D6B3A"/></g><g transform="translate(0 512)" opacity=".45"><circle r="20" fill="#8A6A3A"/><circle r="9" fill="#C9A060"/><ellipse cx="28" cy="0" rx="13" ry="8" transform="rotate(0 28 0)" fill="#5D6B3A"/><ellipse cx="8.7" cy="26.6" rx="13" ry="8" transform="rotate(72 8.7 26.6)" fill="#5D6B3A"/><ellipse cx="-22.7" cy="16.5" rx="13" ry="8" transform="rotate(144 -22.7 16.5)" fill="#5D6B3A"/><ellipse cx="-22.7" cy="-16.5" rx="13" ry="8" transform="rotate(216 -22.7 -16.5)" fill="#5D6B3A"/><ellipse cx="8.7" cy="-26.6" rx="13" ry="8" transform="rotate(288 8.7 -26.6)" fill="#5D6B3A"/></g><g transform="translate(128 512)" opacity=".45"><circle r="20" fill="#8A6A3A"/><circle r="9" fill="#C9A060"/><ellipse cx="28" cy="0" rx="13" ry="8" transform="rotate(0 28 0)" fill="#5D6B3A"/><ellipse cx="8.7" cy="26.6" rx="13" ry="8" transform="rotate(72 8.7 26.6)" fill="#5D6B3A"/><ellipse cx="-22.7" cy="16.5" rx="13" ry="8" transform="rotate(144 -22.7 16.5)" fill="#5D6B3A"/><ellipse cx="-22.7" cy="-16.5" rx="13" ry="8" transform="rotate(216 -22.7 -16.5)" fill="#5D6B3A"/><ellipse cx="8.7" cy="-26.6" rx="13" ry="8" transform="rotate(288 8.7 -26.6)" fill="#5D6B3A"/></g><g transform="translate(256 512)" opacity=".45"><circle r="20" fill="#8A6A3A"/><circle r="9" fill="#C9A060"/><ellipse cx="28" cy="0" rx="13" ry="8" transform="rotate(0 28 0)" fill="#5D6B3A"/><ellipse cx="8.7" cy="26.6" rx="13" ry="8" transform="rotate(72 8.7 26.6)" fill="#5D6B3A"/><ellipse cx="-22.7" cy="16.5" rx="13" ry="8" transform="rotate(144 -22.7 16.5)" fill="#5D6B3A"/><ellipse cx="-22.7" cy="-16.5" rx="13" ry="8" transform="rotate(216 -22.7 -16.5)" fill="#5D6B3A"/><ellipse cx="8.7" cy="-26.6" rx="13" ry="8" transform="rotate(288 8.7 -26.6)" fill="#5D6B3A"/></g><g transform="translate(384 512)" opacity=".45"><circle r="20" fill="#8A6A3A"/><circle r="9" fill="#C9A060"/><ellipse cx="28" cy="0" rx="13" ry="8" transform="rotate(0 28 0)" fill="#5D6B3A"/><ellipse cx="8.7" cy="26.6" rx="13" ry="8" transform="rotate(72 8.7 26.6)" fill="#5D6B3A"/><ellipse cx="-22.7" cy="16.5" rx="13" ry="8" transform="rotate(144 -22.7 16.5)" fill="#5D6B3A"/><ellipse cx="-22.7" cy="-16.5" rx="13" ry="8" transform="rotate(216 -22.7 -16.5)" fill="#5D6B3A"/><ellipse cx="8.7" cy="-26.6" rx="13" ry="8" transform="rotate(288 8.7 -26.6)" fill="#5D6B3A"/></g><g transform="translate(512 512)" opacity=".45"><circle r="20" fill="#8A6A3A"/><circle r="9" fill="#C9A060"/><ellipse cx="28" cy="0" rx="13" ry="8" transform="rotate(0 28 0)" fill="#5D6B3A"/><ellipse cx="8.7" cy="26.6" rx="13" ry="8" transform="rotate(72 8.7 26.6)" fill="#5D6B3A"/><ellipse cx="-22.7" cy="16.5" rx="13" ry="8" transform="rotate(144 -22.7 16.5)" fill="#5D6B3A"/><ellipse cx="-22.7" cy="-16.5" rx="13" ry="8" transform="rotate(216 -22.7 -16.5)" fill="#5D6B3A"/><ellipse cx="8.7" cy="-26.6" rx="13" ry="8" transform="rotate(288 8.7 -26.6)" fill="#5D6B3A"/></g><g transform="translate(640 512)" opacity=".45"><circle r="20" fill="#8A6A3A"/><circle r="9" fill="#C9A060"/><ellipse cx="28" cy="0" rx="13" ry="8" transform="rotate(0 28 0)" fill="#5D6B3A"/><ellipse cx="8.7" cy="26.6" rx="13" ry="8" transform="rotate(72 8.7 26.6)" fill="#5D6B3A"/><ellipse cx="-22.7" cy="16.5" rx="13" ry="8" transform="rotate(144 -22.7 16.5)" fill="#5D6B3A"/><ellipse cx="-22.7" cy="-16.5" rx="13" ry="8" transform="rotate(216 -22.7 -16.5)" fill="#5D6B3A"/><ellipse cx="8.7" cy="-26.6" rx="13" ry="8" transform="rotate(288 8.7 -26.6)" fill="#5D6B3A"/></g><g transform="translate(768 512)" opacity=".45"><circle r="20" fill="#8A6A3A"/><circle r="9" fill="#C9A060"/><ellipse cx="28" cy="0" rx="13" ry="8" transform="rotate(0 28 0)" fill="#5D6B3A"/><ellipse cx="8.7" cy="26.6" rx="13" ry="8" transform="rotate(72 8.7 26.6)" fill="#5D6B3A"/><ellipse cx="-22.7" cy="16.5" rx="13" ry="8" transform="rotate(144 -22.7 16.5)" fill="#5D6B3A"/><ellipse cx="-22.7" cy="-16.5" rx="13" ry="8" transform="rotate(216 -22.7 -16.5)" fill="#5D6B3A"/><ellipse cx="8.7" cy="-26.6" rx="13" ry="8" transform="rotate(288 8.7 -26.6)" fill="#5D6B3A"/></g><g transform="translate(896 512)" opacity=".45"><circle r="20" fill="#8A6A3A"/><circle r="9" fill="#C9A060"/><ellipse cx="28" cy="0" rx="13" ry="8" transform="rotate(0 28 0)" fill="#5D6B3A"/><ellipse cx="8.7" cy="26.6" rx="13" ry="8" transform="rotate(72 8.7 26.6)" fill="#5D6B3A"/><ellipse cx="-22.7" cy="16.5" rx="13" ry="8" transform="rotate(144 -22.7 16.5)" fill="#5D6B3A"/><ellipse cx="-22.7" cy="-16.5" rx="13" ry="8" transform="rotate(216 -22.7 -16.5)" fill="#5D6B3A"/><ellipse cx="8.7" cy="-26.6" rx="13" ry="8" transform="rotate(288 8.7 -26.6)" fill="#5D6B3A"/></g><g transform="translate(1024 512)" opacity=".45"><circle r="20" fill="#8A6A3A"/><circle r="9" fill="#C9A060"/><ellipse cx="28" cy="0" rx="13" ry="8" transform="rotate(0 28 0)" fill="#5D6B3A"/><ellipse cx="8.7" cy="26.6" rx="13" ry="8" transform="rotate(72 8.7 26.6)" fill="#5D6B3A"/><ellipse cx="-22.7" cy="16.5" rx="13" ry="8" transform="rotate(144 -22.7 16.5)" fill="#5D6B3A"/><ellipse cx="-22.7" cy="-16.5" rx="13" ry="8" transform="rotate(216 -22.7 -16.5)" fill="#5D6B3A"/><ellipse cx="8.7" cy="-26.6" rx="13" ry="8" transform="rotate(288 8.7 -26.6)" fill="#5D6B3A"/></g><g transform="translate(64 640)" opacity=".45"><circle r="20" fill="#8A6A3A"/><circle r="9" fill="#C9A060"/><ellipse cx="28" cy="0" rx="13" ry="8" transform="rotate(0 28 0)" fill="#5D6B3A"/><ellipse cx="8.7" cy="26.6" rx="13" ry="8" transform="rotate(72 8.7 26.6)" fill="#5D6B3A"/><ellipse cx="-22.7" cy="16.5" rx="13" ry="8" transform="rotate(144 -22.7 16.5)" fill="#5D6B3A"/><ellipse cx="-22.7" cy="-16.5" rx="13" ry="8" transform="rotate(216 -22.7 -16.5)" fill="#5D6B3A"/><ellipse cx="8.7" cy="-26.6" rx="13" ry="8" transform="rotate(288 8.7 -26.6)" fill="#5D6B3A"/></g><g transform="translate(192 640)" opacity=".45"><circle r="20" fill="#8A6A3A"/><circle r="9" fill="#C9A060"/><ellipse cx="28" cy="0" rx="13" ry="8" transform="rotate(0 28 0)" fill="#5D6B3A"/><ellipse cx="8.7" cy="26.6" rx="13" ry="8" transform="rotate(72 8.7 26.6)" fill="#5D6B3A"/><ellipse cx="-22.7" cy="16.5" rx="13" ry="8" transform="rotate(144 -22.7 16.5)" fill="#5D6B3A"/><ellipse cx="-22.7" cy="-16.5" rx="13" ry="8" transform="rotate(216 -22.7 -16.5)" fill="#5D6B3A"/><ellipse cx="8.7" cy="-26.6" rx="13" ry="8" transform="rotate(288 8.7 -26.6)" fill="#5D6B3A"/></g><g transform="translate(320 640)" opacity=".45"><circle r="20" fill="#8A6A3A"/><circle r="9" fill="#C9A060"/><ellipse cx="28" cy="0" rx="13" ry="8" transform="rotate(0 28 0)" fill="#5D6B3A"/><ellipse cx="8.7" cy="26.6" rx="13" ry="8" transform="rotate(72 8.7 26.6)" fill="#5D6B3A"/><ellipse cx="-22.7" cy="16.5" rx="13" ry="8" transform="rotate(144 -22.7 16.5)" fill="#5D6B3A"/><ellipse cx="-22.7" cy="-16.5" rx="13" ry="8" transform="rotate(216 -22.7 -16.5)" fill="#5D6B3A"/><ellipse cx="8.7" cy="-26.6" rx="13" ry="8" transform="rotate(288 8.7 -26.6)" fill="#5D6B3A"/></g><g transform="translate(448 640)" opacity=".45"><circle r="20" fill="#8A6A3A"/><circle r="9" fill="#C9A060"/><ellipse cx="28" cy="0" rx="13" ry="8" transform="rotate(0 28 0)" fill="#5D6B3A"/><ellipse cx="8.7" cy="26.6" rx="13" ry="8" transform="rotate(72 8.7 26.6)" fill="#5D6B3A"/><ellipse cx="-22.7" cy="16.5" rx="13" ry="8" transform="rotate(144 -22.7 16.5)" fill="#5D6B3A"/><ellipse cx="-22.7" cy="-16.5" rx="13" ry="8" transform="rotate(216 -22.7 -16.5)" fill="#5D6B3A"/><ellipse cx="8.7" cy="-26.6" rx="13" ry="8" transform="rotate(288 8.7 -26.6)" fill="#5D6B3A"/></g><g transform="translate(576 640)" opacity=".45"><circle r="20" fill="#8A6A3A"/><circle r="9" fill="#C9A060"/><ellipse cx="28" cy="0" rx="13" ry="8" transform="rotate(0 28 0)" fill="#5D6B3A"/><ellipse cx="8.7" cy="26.6" rx="13" ry="8" transform="rotate(72 8.7 26.6)" fill="#5D6B3A"/><ellipse cx="-22.7" cy="16.5" rx="13" ry="8" transform="rotate(144 -22.7 16.5)" fill="#5D6B3A"/><ellipse cx="-22.7" cy="-16.5" rx="13" ry="8" transform="rotate(216 -22.7 -16.5)" fill="#5D6B3A"/><ellipse cx="8.7" cy="-26.6" rx="13" ry="8" transform="rotate(288 8.7 -26.6)" fill="#5D6B3A"/></g><g transform="translate(704 640)" opacity=".45"><circle r="20" fill="#8A6A3A"/><circle r="9" fill="#C9A060"/><ellipse cx="28" cy="0" rx="13" ry="8" transform="rotate(0 28 0)" fill="#5D6B3A"/><ellipse cx="8.7" cy="26.6" rx="13" ry="8" transform="rotate(72 8.7 26.6)" fill="#5D6B3A"/><ellipse cx="-22.7" cy="16.5" rx="13" ry="8" transform="rotate(144 -22.7 16.5)" fill="#5D6B3A"/><ellipse cx="-22.7" cy="-16.5" rx="13" ry="8" transform="rotate(216 -22.7 -16.5)" fill="#5D6B3A"/><ellipse cx="8.7" cy="-26.6" rx="13" ry="8" transform="rotate(288 8.7 -26.6)" fill="#5D6B3A"/></g><g transform="translate(832 640)" opacity=".45"><circle r="20" fill="#8A6A3A"/><circle r="9" fill="#C9A060"/><ellipse cx="28" cy="0" rx="13" ry="8" transform="rotate(0 28 0)" fill="#5D6B3A"/><ellipse cx="8.7" cy="26.6" rx="13" ry="8" transform="rotate(72 8.7 26.6)" fill="#5D6B3A"/><ellipse cx="-22.7" cy="16.5" rx="13" ry="8" transform="rotate(144 -22.7 16.5)" fill="#5D6B3A"/><ellipse cx="-22.7" cy="-16.5" rx="13" ry="8" transform="rotate(216 -22.7 -16.5)" fill="#5D6B3A"/><ellipse cx="8.7" cy="-26.6" rx="13" ry="8" transform="rotate(288 8.7 -26.6)" fill="#5D6B3A"/></g><g transform="translate(960 640)" opacity=".45"><circle r="20" fill="#8A6A3A"/><circle r="9" fill="#C9A060"/><ellipse cx="28" cy="0" rx="13" ry="8" transform="rotate(0 28 0)" fill="#5D6B3A"/><ellipse cx="8.7" cy="26.6" rx="13" ry="8" transform="rotate(72 8.7 26.6)" fill="#5D6B3A"/><ellipse cx="-22.7" cy="16.5" rx="13" ry="8" transform="rotate(144 -22.7 16.5)" fill="#5D6B3A"/><ellipse cx="-22.7" cy="-16.5" rx="13" ry="8" transform="rotate(216 -22.7 -16.5)" fill="#5D6B3A"/><ellipse cx="8.7" cy="-26.6" rx="13" ry="8" transform="rotate(288 8.7 -26.6)" fill="#5D6B3A"/></g><g transform="translate(0 768)" opacity=".45"><circle r="20" fill="#8A6A3A"/><circle r="9" fill="#C9A060"/><ellipse cx="28" cy="0" rx="13" ry="8" transform="rotate(0 28 0)" fill="#5D6B3A"/><ellipse cx="8.7" cy="26.6" rx="13" ry="8" transform="rotate(72 8.7 26.6)" fill="#5D6B3A"/><ellipse cx="-22.7" cy="16.5" rx="13" ry="8" transform="rotate(144 -22.7 16.5)" fill="#5D6B3A"/><ellipse cx="-22.7" cy="-16.5" rx="13" ry="8" transform="rotate(216 -22.7 -16.5)" fill="#5D6B3A"/><ellipse cx="8.7" cy="-26.6" rx="13" ry="8" transform="rotate(288 8.7 -26.6)" fill="#5D6B3A"/></g><g transform="translate(128 768)" opacity=".45"><circle r="20" fill="#8A6A3A"/><circle r="9" fill="#C9A060"/><ellipse cx="28" cy="0" rx="13" ry="8" transform="rotate(0 28 0)" fill="#5D6B3A"/><ellipse cx="8.7" cy="26.6" rx="13" ry="8" transform="rotate(72 8.7 26.6)" fill="#5D6B3A"/><ellipse cx="-22.7" cy="16.5" rx="13" ry="8" transform="rotate(144 -22.7 16.5)" fill="#5D6B3A"/><ellipse cx="-22.7" cy="-16.5" rx="13" ry="8" transform="rotate(216 -22.7 -16.5)" fill="#5D6B3A"/><ellipse cx="8.7" cy="-26.6" rx="13" ry="8" transform="rotate(288 8.7 -26.6)" fill="#5D6B3A"/></g><g transform="translate(256 768)" opacity=".45"><circle r="20" fill="#8A6A3A"/><circle r="9" fill="#C9A060"/><ellipse cx="28" cy="0" rx="13" ry="8" transform="rotate(0 28 0)" fill="#5D6B3A"/><ellipse cx="8.7" cy="26.6" rx="13" ry="8" transform="rotate(72 8.7 26.6)" fill="#5D6B3A"/><ellipse cx="-22.7" cy="16.5" rx="13" ry="8" transform="rotate(144 -22.7 16.5)" fill="#5D6B3A"/><ellipse cx="-22.7" cy="-16.5" rx="13" ry="8" transform="rotate(216 -22.7 -16.5)" fill="#5D6B3A"/><ellipse cx="8.7" cy="-26.6" rx="13" ry="8" transform="rotate(288 8.7 -26.6)" fill="#5D6B3A"/></g><g transform="translate(384 768)" opacity=".45"><circle r="20" fill="#8A6A3A"/><circle r="9" fill="#C9A060"/><ellipse cx="28" cy="0" rx="13" ry="8" transform="rotate(0 28 0)" fill="#5D6B3A"/><ellipse cx="8.7" cy="26.6" rx="13" ry="8" transform="rotate(72 8.7 26.6)" fill="#5D6B3A"/><ellipse cx="-22.7" cy="16.5" rx="13" ry="8" transform="rotate(144 -22.7 16.5)" fill="#5D6B3A"/><ellipse cx="-22.7" cy="-16.5" rx="13" ry="8" transform="rotate(216 -22.7 -16.5)" fill="#5D6B3A"/><ellipse cx="8.7" cy="-26.6" rx="13" ry="8" transform="rotate(288 8.7 -26.6)" fill="#5D6B3A"/></g><g transform="translate(512 768)" opacity=".45"><circle r="20" fill="#8A6A3A"/><circle r="9" fill="#C9A060"/><ellipse cx="28" cy="0" rx="13" ry="8" transform="rotate(0 28 0)" fill="#5D6B3A"/><ellipse cx="8.7" cy="26.6" rx="13" ry="8" transform="rotate(72 8.7 26.6)" fill="#5D6B3A"/><ellipse cx="-22.7" cy="16.5" rx="13" ry="8" transform="rotate(144 -22.7 16.5)" fill="#5D6B3A"/><ellipse cx="-22.7" cy="-16.5" rx="13" ry="8" transform="rotate(216 -22.7 -16.5)" fill="#5D6B3A"/><ellipse cx="8.7" cy="-26.6" rx="13" ry="8" transform="rotate(288 8.7 -26.6)" fill="#5D6B3A"/></g><g transform="translate(640 768)" opacity=".45"><circle r="20" fill="#8A6A3A"/><circle r="9" fill="#C9A060"/><ellipse cx="28" cy="0" rx="13" ry="8" transform="rotate(0 28 0)" fill="#5D6B3A"/><ellipse cx="8.7" cy="26.6" rx="13" ry="8" transform="rotate(72 8.7 26.6)" fill="#5D6B3A"/><ellipse cx="-22.7" cy="16.5" rx="13" ry="8" transform="rotate(144 -22.7 16.5)" fill="#5D6B3A"/><ellipse cx="-22.7" cy="-16.5" rx="13" ry="8" transform="rotate(216 -22.7 -16.5)" fill="#5D6B3A"/><ellipse cx="8.7" cy="-26.6" rx="13" ry="8" transform="rotate(288 8.7 -26.6)" fill="#5D6B3A"/></g><g transform="translate(768 768)" opacity=".45"><circle r="20" fill="#8A6A3A"/><circle r="9" fill="#C9A060"/><ellipse cx="28" cy="0" rx="13" ry="8" transform="rotate(0 28 0)" fill="#5D6B3A"/><ellipse cx="8.7" cy="26.6" rx="13" ry="8" transform="rotate(72 8.7 26.6)" fill="#5D6B3A"/><ellipse cx="-22.7" cy="16.5" rx="13" ry="8" transform="rotate(144 -22.7 16.5)" fill="#5D6B3A"/><ellipse cx="-22.7" cy="-16.5" rx="13" ry="8" transform="rotate(216 -22.7 -16.5)" fill="#5D6B3A"/><ellipse cx="8.7" cy="-26.6" rx="13" ry="8" transform="rotate(288 8.7 -26.6)" fill="#5D6B3A"/></g><g transform="translate(896 768)" opacity=".45"><circle r="20" fill="#8A6A3A"/><circle r="9" fill="#C9A060"/><ellipse cx="28" cy="0" rx="13" ry="8" transform="rotate(0 28 0)" fill="#5D6B3A"/><ellipse cx="8.7" cy="26.6" rx="13" ry="8" transform="rotate(72 8.7 26.6)" fill="#5D6B3A"/><ellipse cx="-22.7" cy="16.5" rx="13" ry="8" transform="rotate(144 -22.7 16.5)" fill="#5D6B3A"/><ellipse cx="-22.7" cy="-16.5" rx="13" ry="8" transform="rotate(216 -22.7 -16.5)" fill="#5D6B3A"/><ellipse cx="8.7" cy="-26.6" rx="13" ry="8" transform="rotate(288 8.7 -26.6)" fill="#5D6B3A"/></g><g transform="translate(1024 768)" opacity=".45"><circle r="20" fill="#8A6A3A"/><circle r="9" fill="#C9A060"/><ellipse cx="28" cy="0" rx="13" ry="8" transform="rotate(0 28 0)" fill="#5D6B3A"/><ellipse cx="8.7" cy="26.6" rx="13" ry="8" transform="rotate(72 8.7 26.6)" fill="#5D6B3A"/><ellipse cx="-22.7" cy="16.5" rx="13" ry="8" transform="rotate(144 -22.7 16.5)" fill="#5D6B3A"/><ellipse cx="-22.7" cy="-16.5" rx="13" ry="8" transform="rotate(216 -22.7 -16.5)" fill="#5D6B3A"/><ellipse cx="8.7" cy="-26.6" rx="13" ry="8" transform="rotate(288 8.7 -26.6)" fill="#5D6B3A"/></g><g transform="translate(64 896)" opacity=".45"><circle r="20" fill="#8A6A3A"/><circle r="9" fill="#C9A060"/><ellipse cx="28" cy="0" rx="13" ry="8" transform="rotate(0 28 0)" fill="#5D6B3A"/><ellipse cx="8.7" cy="26.6" rx="13" ry="8" transform="rotate(72 8.7 26.6)" fill="#5D6B3A"/><ellipse cx="-22.7" cy="16.5" rx="13" ry="8" transform="rotate(144 -22.7 16.5)" fill="#5D6B3A"/><ellipse cx="-22.7" cy="-16.5" rx="13" ry="8" transform="rotate(216 -22.7 -16.5)" fill="#5D6B3A"/><ellipse cx="8.7" cy="-26.6" rx="13" ry="8" transform="rotate(288 8.7 -26.6)" fill="#5D6B3A"/></g><g transform="translate(192 896)" opacity=".45"><circle r="20" fill="#8A6A3A"/><circle r="9" fill="#C9A060"/><ellipse cx="28" cy="0" rx="13" ry="8" transform="rotate(0 28 0)" fill="#5D6B3A"/><ellipse cx="8.7" cy="26.6" rx="13" ry="8" transform="rotate(72 8.7 26.6)" fill="#5D6B3A"/><ellipse cx="-22.7" cy="16.5" rx="13" ry="8" transform="rotate(144 -22.7 16.5)" fill="#5D6B3A"/><ellipse cx="-22.7" cy="-16.5" rx="13" ry="8" transform="rotate(216 -22.7 -16.5)" fill="#5D6B3A"/><ellipse cx="8.7" cy="-26.6" rx="13" ry="8" transform="rotate(288 8.7 -26.6)" fill="#5D6B3A"/></g><g transform="translate(320 896)" opacity=".45"><circle r="20" fill="#8A6A3A"/><circle r="9" fill="#C9A060"/><ellipse cx="28" cy="0" rx="13" ry="8" transform="rotate(0 28 0)" fill="#5D6B3A"/><ellipse cx="8.7" cy="26.6" rx="13" ry="8" transform="rotate(72 8.7 26.6)" fill="#5D6B3A"/><ellipse cx="-22.7" cy="16.5" rx="13" ry="8" transform="rotate(144 -22.7 16.5)" fill="#5D6B3A"/><ellipse cx="-22.7" cy="-16.5" rx="13" ry="8" transform="rotate(216 -22.7 -16.5)" fill="#5D6B3A"/><ellipse cx="8.7" cy="-26.6" rx="13" ry="8" transform="rotate(288 8.7 -26.6)" fill="#5D6B3A"/></g><g transform="translate(448 896)" opacity=".45"><circle r="20" fill="#8A6A3A"/><circle r="9" fill="#C9A060"/><ellipse cx="28" cy="0" rx="13" ry="8" transform="rotate(0 28 0)" fill="#5D6B3A"/><ellipse cx="8.7" cy="26.6" rx="13" ry="8" transform="rotate(72 8.7 26.6)" fill="#5D6B3A"/><ellipse cx="-22.7" cy="16.5" rx="13" ry="8" transform="rotate(144 -22.7 16.5)" fill="#5D6B3A"/><ellipse cx="-22.7" cy="-16.5" rx="13" ry="8" transform="rotate(216 -22.7 -16.5)" fill="#5D6B3A"/><ellipse cx="8.7" cy="-26.6" rx="13" ry="8" transform="rotate(288 8.7 -26.6)" fill="#5D6B3A"/></g><g transform="translate(576 896)" opacity=".45"><circle r="20" fill="#8A6A3A"/><circle r="9" fill="#C9A060"/><ellipse cx="28" cy="0" rx="13" ry="8" transform="rotate(0 28 0)" fill="#5D6B3A"/><ellipse cx="8.7" cy="26.6" rx="13" ry="8" transform="rotate(72 8.7 26.6)" fill="#5D6B3A"/><ellipse cx="-22.7" cy="16.5" rx="13" ry="8" transform="rotate(144 -22.7 16.5)" fill="#5D6B3A"/><ellipse cx="-22.7" cy="-16.5" rx="13" ry="8" transform="rotate(216 -22.7 -16.5)" fill="#5D6B3A"/><ellipse cx="8.7" cy="-26.6" rx="13" ry="8" transform="rotate(288 8.7 -26.6)" fill="#5D6B3A"/></g><g transform="translate(704 896)" opacity=".45"><circle r="20" fill="#8A6A3A"/><circle r="9" fill="#C9A060"/><ellipse cx="28" cy="0" rx="13" ry="8" transform="rotate(0 28 0)" fill="#5D6B3A"/><ellipse cx="8.7" cy="26.6" rx="13" ry="8" transform="rotate(72 8.7 26.6)" fill="#5D6B3A"/><ellipse cx="-22.7" cy="16.5" rx="13" ry="8" transform="rotate(144 -22.7 16.5)" fill="#5D6B3A"/><ellipse cx="-22.7" cy="-16.5" rx="13" ry="8" transform="rotate(216 -22.7 -16.5)" fill="#5D6B3A"/><ellipse cx="8.7" cy="-26.6" rx="13" ry="8" transform="rotate(288 8.7 -26.6)" fill="#5D6B3A"/></g><g transform="translate(832 896)" opacity=".45"><circle r="20" fill="#8A6A3A"/><circle r="9" fill="#C9A060"/><ellipse cx="28" cy="0" rx="13" ry="8" transform="rotate(0 28 0)" fill="#5D6B3A"/><ellipse cx="8.7" cy="26.6" rx="13" ry="8" transform="rotate(72 8.7 26.6)" fill="#5D6B3A"/><ellipse cx="-22.7" cy="16.5" rx="13" ry="8" transform="rotate(144 -22.7 16.5)" fill="#5D6B3A"/><ellipse cx="-22.7" cy="-16.5" rx="13" ry="8" transform="rotate(216 -22.7 -16.5)" fill="#5D6B3A"/><ellipse cx="8.7" cy="-26.6" rx="13" ry="8" transform="rotate(288 8.7 -26.6)" fill="#5D6B3A"/></g><g transform="translate(960 896)" opacity=".45"><circle r="20" fill="#8A6A3A"/><circle r="9" fill="#C9A060"/><ellipse cx="28" cy="0" rx="13" ry="8" transform="rotate(0 28 0)" fill="#5D6B3A"/><ellipse cx="8.7" cy="26.6" rx="13" ry="8" transform="rotate(72 8.7 26.6)" fill="#5D6B3A"/><ellipse cx="-22.7" cy="16.5" rx="13" ry="8" transform="rotate(144 -22.7 16.5)" fill="#5D6B3A"/><ellipse cx="-22.7" cy="-16.5" rx="13" ry="8" transform="rotate(216 -22.7 -16.5)" fill="#5D6B3A"/><ellipse cx="8.7" cy="-26.6" rx="13" ry="8" transform="rotate(288 8.7 -26.6)" fill="#5D6B3A"/></g><rect width="1024" height="1024" fill="url(#ltv)"/><circle cx="442" cy="512" r="150" fill="none" stroke="#1B1A14" stroke-width="12"/><circle cx="582" cy="512" r="150" fill="none" stroke="#1B1A14" stroke-width="12"/><g transform="translate(589 541.8) rotate(101.5)"><rect x="-12" y="-8" width="24" height="20" rx="4" fill="#2A2A2A"/><ellipse cx="0" cy="-40" rx="23" ry="34" fill="#FF4B3E" filter="url(#ltg)"/><ellipse cx="-7" cy="-50" rx="6" ry="11" fill="#fff" opacity=".7"/></g><g transform="translate(543.4 622.5) rotate(137.5)"><rect x="-12" y="-8" width="24" height="20" rx="4" fill="#2A2A2A"/><ellipse cx="0" cy="-40" rx="23" ry="34" fill="#FFD23F" filter="url(#ltg)"/><ellipse cx="-7" cy="-50" rx="6" ry="11" fill="#fff" opacity=".7"/></g><g transform="translate(459.1 661) rotate(173.5)"><rect x="-12" y="-8" width="24" height="20" rx="4" fill="#2A2A2A"/><ellipse cx="0" cy="-40" rx="23" ry="34" fill="#3EE07A" filter="url(#ltg)"/><ellipse cx="-7" cy="-50" rx="6" ry="11" fill="#fff" opacity=".7"/></g><g transform="translate(368.2 642.6) rotate(209.5)"><rect x="-12" y="-8" width="24" height="20" rx="4" fill="#2A2A2A"/><ellipse cx="0" cy="-40" rx="23" ry="34" fill="#4FA8FF" filter="url(#ltg)"/><ellipse cx="-7" cy="-50" rx="6" ry="11" fill="#fff" opacity=".7"/></g><g transform="translate(305.6 574.3) rotate(245.5)"><rect x="-12" y="-8" width="24" height="20" rx="4" fill="#2A2A2A"/><ellipse cx="0" cy="-40" rx="23" ry="34" fill="#FF6FCF" filter="url(#ltg)"/><ellipse cx="-7" cy="-50" rx="6" ry="11" fill="#fff" opacity=".7"/></g><g transform="translate(295 482.2) rotate(281.5)"><rect x="-12" y="-8" width="24" height="20" rx="4" fill="#2A2A2A"/><ellipse cx="0" cy="-40" rx="23" ry="34" fill="#FF9A2E" filter="url(#ltg)"/><ellipse cx="-7" cy="-50" rx="6" ry="11" fill="#fff" opacity=".7"/></g><g transform="translate(340.6 401.5) rotate(317.5)"><rect x="-12" y="-8" width="24" height="20" rx="4" fill="#2A2A2A"/><ellipse cx="0" cy="-40" rx="23" ry="34" fill="#FF4B3E" filter="url(#ltg)"/><ellipse cx="-7" cy="-50" rx="6" ry="11" fill="#fff" opacity=".7"/></g><g transform="translate(424.9 363) rotate(353.5)"><rect x="-12" y="-8" width="24" height="20" rx="4" fill="#2A2A2A"/><ellipse cx="0" cy="-40" rx="23" ry="34" fill="#FFD23F" filter="url(#ltg)"/><ellipse cx="-7" cy="-50" rx="6" ry="11" fill="#fff" opacity=".7"/></g><g transform="translate(515.8 381.4) rotate(389.5)"><rect x="-12" y="-8" width="24" height="20" rx="4" fill="#2A2A2A"/><ellipse cx="0" cy="-40" rx="23" ry="34" fill="#3EE07A" filter="url(#ltg)"/><ellipse cx="-7" cy="-50" rx="6" ry="11" fill="#fff" opacity=".7"/></g><g transform="translate(578.4 449.7) rotate(425.5)"><rect x="-12" y="-8" width="24" height="20" rx="4" fill="#2A2A2A"/><ellipse cx="0" cy="-40" rx="23" ry="34" fill="#4FA8FF" filter="url(#ltg)"/><ellipse cx="-7" cy="-50" rx="6" ry="11" fill="#fff" opacity=".7"/></g><g transform="translate(713.6 583.9) rotate(118.6)"><rect x="-12" y="-8" width="24" height="20" rx="4" fill="#2A2A2A"/><ellipse cx="0" cy="-40" rx="23" ry="34" fill="#FF6FCF" filter="url(#ltg)"/><ellipse cx="-7" cy="-50" rx="6" ry="11" fill="#fff" opacity=".7"/></g><g transform="translate(646.2 647.6) rotate(154.6)"><rect x="-12" y="-8" width="24" height="20" rx="4" fill="#2A2A2A"/><ellipse cx="0" cy="-40" rx="23" ry="34" fill="#FF9A2E" filter="url(#ltg)"/><ellipse cx="-7" cy="-50" rx="6" ry="11" fill="#fff" opacity=".7"/></g><g transform="translate(554.3 659.4) rotate(190.6)"><rect x="-12" y="-8" width="24" height="20" rx="4" fill="#2A2A2A"/><ellipse cx="0" cy="-40" rx="23" ry="34" fill="#FF4B3E" filter="url(#ltg)"/><ellipse cx="-7" cy="-50" rx="6" ry="11" fill="#fff" opacity=".7"/></g><g transform="translate(472.9 615) rotate(226.6)"><rect x="-12" y="-8" width="24" height="20" rx="4" fill="#2A2A2A"/><ellipse cx="0" cy="-40" rx="23" ry="34" fill="#FFD23F" filter="url(#ltg)"/><ellipse cx="-7" cy="-50" rx="6" ry="11" fill="#fff" opacity=".7"/></g><g transform="translate(433.2 531.2) rotate(262.6)"><rect x="-12" y="-8" width="24" height="20" rx="4" fill="#2A2A2A"/><ellipse cx="0" cy="-40" rx="23" ry="34" fill="#3EE07A" filter="url(#ltg)"/><ellipse cx="-7" cy="-50" rx="6" ry="11" fill="#fff" opacity=".7"/></g><g transform="translate(450.4 440.1) rotate(298.6)"><rect x="-12" y="-8" width="24" height="20" rx="4" fill="#2A2A2A"/><ellipse cx="0" cy="-40" rx="23" ry="34" fill="#4FA8FF" filter="url(#ltg)"/><ellipse cx="-7" cy="-50" rx="6" ry="11" fill="#fff" opacity=".7"/></g><g transform="translate(517.8 376.4) rotate(334.6)"><rect x="-12" y="-8" width="24" height="20" rx="4" fill="#2A2A2A"/><ellipse cx="0" cy="-40" rx="23" ry="34" fill="#FF6FCF" filter="url(#ltg)"/><ellipse cx="-7" cy="-50" rx="6" ry="11" fill="#fff" opacity=".7"/></g><g transform="translate(609.7 364.6) rotate(370.6)"><rect x="-12" y="-8" width="24" height="20" rx="4" fill="#2A2A2A"/><ellipse cx="0" cy="-40" rx="23" ry="34" fill="#FF9A2E" filter="url(#ltg)"/><ellipse cx="-7" cy="-50" rx="6" ry="11" fill="#fff" opacity=".7"/></g><g transform="translate(691.1 409) rotate(406.6)"><rect x="-12" y="-8" width="24" height="20" rx="4" fill="#2A2A2A"/><ellipse cx="0" cy="-40" rx="23" ry="34" fill="#FF4B3E" filter="url(#ltg)"/><ellipse cx="-7" cy="-50" rx="6" ry="11" fill="#fff" opacity=".7"/></g><g transform="translate(730.8 492.8) rotate(442.6)"><rect x="-12" y="-8" width="24" height="20" rx="4" fill="#2A2A2A"/><ellipse cx="0" cy="-40" rx="23" ry="34" fill="#FFD23F" filter="url(#ltg)"/><ellipse cx="-7" cy="-50" rx="6" ry="11" fill="#fff" opacity=".7"/></g></svg>
