<svg xmlns="http://www.w3.org/2000/svg" viewBox="-18 -18 356 376" role="img" aria-label="Namzi, the Namzilabs mascot"><defs><linearGradient id="nz8b" gradientUnits="userSpaceOnUse" x1="112" y1="60" x2="214" y2="252"><stop offset="0" stop-color="#a3c1ff"/><stop offset=".48" stop-color="#6593ff"/><stop offset="1" stop-color="#3566e0"/></linearGradient><radialGradient id="nz8r" gradientUnits="userSpaceOnUse" cx="140" cy="122" r="152"><stop offset=".6" stop-color="#14286e" stop-opacity="0"/><stop offset="1" stop-color="#14286e" stop-opacity=".3"/></radialGradient><filter id="nz8s" x="-25%" y="-25%" width="150%" height="150%"><feMorphology in="SourceAlpha" operator="dilate" radius="9" result="d"/><feFlood flood-color="#fff"/><feComposite in2="d" operator="in" result="w"/><feDropShadow in="w" dx="0" dy="6" stdDeviation="7" flood-color="#0f1e5a" flood-opacity=".22" result="ws"/><feMerge><feMergeNode in="ws"/><feMergeNode in="SourceGraphic"/></feMerge></filter></defs><g filter="url(#nz8s)"><g transform="translate(0 0) rotate(0 160 312) translate(160 312) scale(1 1) translate(-160 -312)"><path d="M146 238Q140 278 138 302" fill="none" stroke="#14141c" stroke-width="8" stroke-linecap="round"/><path d="M174 238Q180 278 182 302" fill="none" stroke="#14141c" stroke-width="8" stroke-linecap="round"/><ellipse cx="131" cy="305" rx="15.5" ry="8.5" fill="#14141c"/><ellipse cx="189" cy="305" rx="15.5" ry="8.5" fill="#14141c"/><ellipse cx="127" cy="302" rx="5" ry="2.2" fill="#fff" opacity=".35"/><ellipse cx="185" cy="302" rx="5" ry="2.2" fill="#fff" opacity=".35"/><path d="M97 186Q42 214 102 224" fill="none" stroke="#14141c" stroke-width="7.5" stroke-linecap="round"/><path d="M223 186Q278 214 218 224" fill="none" stroke="#14141c" stroke-width="7.5" stroke-linecap="round"/><path d="M160 52A105.5 105.5 0 0 1 160 254A105.5 105.5 0 0 1 160 52Z" fill="url(#nz8b)" stroke="url(#nz8b)" stroke-width="14" stroke-linejoin="round"/><path d="M160 52A105.5 105.5 0 0 1 160 254A105.5 105.5 0 0 1 160 52Z" fill="url(#nz8r)" stroke="url(#nz8r)" stroke-width="14" stroke-linejoin="round"/><path d="M124.8 90A91 91 0 0 0 103 128" fill="none" stroke="#fff" stroke-opacity=".5" stroke-width="8" stroke-linecap="round"/><circle cx="137" cy="80" r="4.2" fill="#fff" fill-opacity=".5"/><clipPath id="nz8eL"><ellipse cx="137" cy="135" rx="18.5" ry="22.5"/></clipPath><g clip-path="url(#nz8eL)"><ellipse cx="137" cy="135" rx="18.5" ry="22.5" fill="#fff"/><circle cx="143.5" cy="138.9" r="9.5" fill="#14141c"/><circle cx="140.08" cy="135.1" r="3.3" fill="#fff"/><circle cx="146.92" cy="142.51" r="1.6" fill="#fff"/><path d="M114.5 106.5H159.5V126.77L114.5 126.77Z" fill="url(#nz8b)"/><path d="M114.5 126.77L159.5 126.77" stroke="#1f3d9b" stroke-width="3.4" stroke-linecap="round"/><path d="M114.5 163.5H159.5V155.34Q137 153.66 114.5 155.34Z" fill="url(#nz8b)"/><path d="M114.5 155.34Q137 153.66 159.5 155.34" fill="none" stroke="#1f3d9b" stroke-width="3" stroke-linecap="round"/></g><clipPath id="nz8eR"><ellipse cx="183" cy="135" rx="18.5" ry="22.5"/></clipPath><g clip-path="url(#nz8eR)"><ellipse cx="183" cy="135" rx="18.5" ry="22.5" fill="#fff"/><circle cx="189.5" cy="138.9" r="9.5" fill="#14141c"/><circle cx="186.08" cy="135.1" r="3.3" fill="#fff"/><circle cx="192.92" cy="142.51" r="1.6" fill="#fff"/><path d="M205.5 106.5H160.5V126.77L205.5 126.77Z" fill="url(#nz8b)"/><path d="M205.5 126.77L160.5 126.77" stroke="#1f3d9b" stroke-width="3.4" stroke-linecap="round"/><path d="M205.5 163.5H160.5V155.34Q183 153.66 205.5 155.34Z" fill="url(#nz8b)"/><path d="M205.5 155.34Q183 153.66 160.5 155.34" fill="none" stroke="#1f3d9b" stroke-width="3" stroke-linecap="round"/></g><path d="M124 103Q137 99 150 105" fill="none" stroke="#14141c" stroke-width="6" stroke-linecap="round"/><path d="M196 103Q183 99 170 105" fill="none" stroke="#14141c" stroke-width="6" stroke-linecap="round"/><path d="M150 177H170" fill="none" stroke="#14141c" stroke-width="5.5" stroke-linecap="round" stroke-linejoin="round"/><circle cx="102" cy="224" r="10.5" fill="#fff" stroke="#14141c" stroke-width="3.6"/><circle cx="218" cy="224" r="10.5" fill="#fff" stroke="#14141c" stroke-width="3.6"/></g></g></svg>
