<svg xmlns="http://www.w3.org/2000/svg" viewBox="-18 -18 356 376" role="img" aria-label="Namzi, the Namzilabs mascot"><defs><linearGradient id="nz2b" gradientUnits="userSpaceOnUse" x1="112" y1="60" x2="214" y2="252"><stop offset="0" stop-color="#a3c1ff"/><stop offset=".48" stop-color="#6593ff"/><stop offset="1" stop-color="#3566e0"/></linearGradient><radialGradient id="nz2r" gradientUnits="userSpaceOnUse" cx="140" cy="122" r="152"><stop offset=".6" stop-color="#14286e" stop-opacity="0"/><stop offset="1" stop-color="#14286e" stop-opacity=".3"/></radialGradient><filter id="nz2s" x="-25%" y="-25%" width="150%" height="150%"><feMorphology in="SourceAlpha" operator="dilate" radius="9" result="d"/><feFlood flood-color="#fff"/><feComposite in2="d" operator="in" result="w"/><feDropShadow in="w" dx="0" dy="6" stdDeviation="7" flood-color="#0f1e5a" flood-opacity=".22" result="ws"/><feMerge><feMergeNode in="ws"/><feMergeNode in="SourceGraphic"/></feMerge></filter></defs><g filter="url(#nz2s)"><g transform="translate(0 0) rotate(0 160 312) translate(160 312) scale(1 1) translate(-160 -312)"><path d="M146 238Q140 278 138 302" fill="none" stroke="#14141c" stroke-width="8" stroke-linecap="round"/><path d="M174 238Q180 278 182 302" fill="none" stroke="#14141c" stroke-width="8" stroke-linecap="round"/><ellipse cx="131" cy="305" rx="15.5" ry="8.5" fill="#14141c"/><ellipse cx="189" cy="305" rx="15.5" ry="8.5" fill="#14141c"/><ellipse cx="127" cy="302" rx="5" ry="2.2" fill="#fff" opacity=".35"/><ellipse cx="185" cy="302" rx="5" ry="2.2" fill="#fff" opacity=".35"/><path d="M97 186Q58 164 60 100" fill="none" stroke="#14141c" stroke-width="7.5" stroke-linecap="round"/><path d="M223 186Q262 164 260 100" fill="none" stroke="#14141c" stroke-width="7.5" stroke-linecap="round"/><path d="M160 52A105.5 105.5 0 0 1 160 254A105.5 105.5 0 0 1 160 52Z" fill="url(#nz2b)" stroke="url(#nz2b)" stroke-width="14" stroke-linejoin="round"/><path d="M160 52A105.5 105.5 0 0 1 160 254A105.5 105.5 0 0 1 160 52Z" fill="url(#nz2r)" stroke="url(#nz2r)" stroke-width="14" stroke-linejoin="round"/><path d="M124.8 90A91 91 0 0 0 103 128" fill="none" stroke="#fff" stroke-opacity=".5" stroke-width="8" stroke-linecap="round"/><circle cx="137" cy="80" r="4.2" fill="#fff" fill-opacity=".5"/><ellipse cx="116" cy="166" rx="11.5" ry="6.5" fill="#ff8fa8" opacity=".55"/><ellipse cx="204" cy="166" rx="11.5" ry="6.5" fill="#ff8fa8" opacity=".55"/><path d="M124 142Q137 120 150 142" fill="none" stroke="#14141c" stroke-width="6" stroke-linecap="round"/><path d="M170 142Q183 120 196 142" fill="none" stroke="#14141c" stroke-width="6" stroke-linecap="round"/><path d="M124 99Q137 91 150 95" fill="none" stroke="#14141c" stroke-width="6" stroke-linecap="round"/><path d="M196 99Q183 91 170 95" fill="none" stroke="#14141c" stroke-width="6" stroke-linecap="round"/><clipPath id="nz2m"><path d="M139 166Q160 171 181 166Q178 199 160 199Q142 199 139 166Z"/></clipPath><path d="M139 166Q160 171 181 166Q178 199 160 199Q142 199 139 166Z" fill="#14141c" stroke="#14141c" stroke-width="3" stroke-linejoin="round"/><ellipse cx="160" cy="197" rx="12" ry="8" fill="#ff7b8e" clip-path="url(#nz2m)"/><circle cx="60" cy="100" r="10.5" fill="#fff" stroke="#14141c" stroke-width="3.6"/><circle cx="260" cy="100" r="10.5" fill="#fff" stroke="#14141c" stroke-width="3.6"/><path transform="translate(64 74) scale(1.25)" d="M0 -12Q2 -2 12 0Q2 2 0 12Q-2 2 -12 0Q-2 -2 0 -12Z" fill="#f5a524"/><path transform="translate(258 62) scale(1)" d="M0 -12Q2 -2 12 0Q2 2 0 12Q-2 2 -12 0Q-2 -2 0 -12Z" fill="#f5a524"/><path transform="translate(270 120) scale(0.6666666666666666)" d="M0 -12Q2 -2 12 0Q2 2 0 12Q-2 2 -12 0Q-2 -2 0 -12Z" fill="#f5a524"/></g></g></svg>
