<svg xmlns="http://www.w3.org/2000/svg" viewBox="-18 -18 356 376" role="img" aria-label="Namzi, the Namzilabs mascot"><defs><linearGradient id="nzbb" gradientUnits="userSpaceOnUse" x1="112" y1="60" x2="214" y2="252"><stop offset="0" stop-color="#a3c1ff"/><stop offset=".48" stop-color="#6593ff"/><stop offset="1" stop-color="#3566e0"/></linearGradient><radialGradient id="nzbr" gradientUnits="userSpaceOnUse" cx="140" cy="122" r="152"><stop offset=".6" stop-color="#14286e" stop-opacity="0"/><stop offset="1" stop-color="#14286e" stop-opacity=".3"/></radialGradient><filter id="nzbs" x="-25%" y="-25%" width="150%" height="150%"><feMorphology in="SourceAlpha" operator="dilate" radius="9" result="d"/><feFlood flood-color="#fff"/><feComposite in2="d" operator="in" result="w"/><feDropShadow in="w" dx="0" dy="6" stdDeviation="7" flood-color="#0f1e5a" flood-opacity=".22" result="ws"/><feMerge><feMergeNode in="ws"/><feMergeNode in="SourceGraphic"/></feMerge></filter></defs><g filter="url(#nzbs)"><g transform="translate(0 0) rotate(0 160 312) translate(160 312) scale(1 1) translate(-160 -312)"><path d="M146 238Q140 278 138 302" fill="none" stroke="#14141c" stroke-width="8" stroke-linecap="round"/><path d="M174 238Q180 278 182 302" fill="none" stroke="#14141c" stroke-width="8" stroke-linecap="round"/><ellipse cx="131" cy="305" rx="15.5" ry="8.5" fill="#14141c"/><ellipse cx="189" cy="305" rx="15.5" ry="8.5" fill="#14141c"/><ellipse cx="127" cy="302" rx="5" ry="2.2" fill="#fff" opacity=".35"/><ellipse cx="185" cy="302" rx="5" ry="2.2" fill="#fff" opacity=".35"/><path d="M97 186Q62 226 50 158" fill="none" stroke="#14141c" stroke-width="7.5" stroke-linecap="round"/><path d="M223 186Q258 226 270 158" fill="none" stroke="#14141c" stroke-width="7.5" stroke-linecap="round"/><path d="M160 52A105.5 105.5 0 0 1 160 254A105.5 105.5 0 0 1 160 52Z" fill="url(#nzbb)" stroke="url(#nzbb)" stroke-width="14" stroke-linejoin="round"/><path d="M160 52A105.5 105.5 0 0 1 160 254A105.5 105.5 0 0 1 160 52Z" fill="url(#nzbr)" stroke="url(#nzbr)" stroke-width="14" stroke-linejoin="round"/><path d="M124.8 90A91 91 0 0 0 103 128" fill="none" stroke="#fff" stroke-opacity=".5" stroke-width="8" stroke-linecap="round"/><circle cx="137" cy="80" r="4.2" fill="#fff" fill-opacity=".5"/><clipPath id="nzbeL"><ellipse cx="137" cy="135" rx="18.5" ry="22.5"/></clipPath><g clip-path="url(#nzbeL)"><ellipse cx="137" cy="135" rx="18.5" ry="22.5" fill="#fff"/><circle cx="137" cy="138.43" r="9.5" fill="#14141c"/><circle cx="133.58" cy="134.63" r="3.3" fill="#fff"/><circle cx="140.42" cy="142.04" r="1.6" fill="#fff"/></g><clipPath id="nzbeR"><ellipse cx="183" cy="135" rx="18.5" ry="22.5"/></clipPath><g clip-path="url(#nzbeR)"><ellipse cx="183" cy="135" rx="18.5" ry="22.5" fill="#fff"/><circle cx="183" cy="138.43" r="9.5" fill="#14141c"/><circle cx="179.58" cy="134.63" r="3.3" fill="#fff"/><circle cx="186.42" cy="142.04" r="1.6" fill="#fff"/></g><path d="M124 102Q137 98 150 102" fill="none" stroke="#14141c" stroke-width="6" stroke-linecap="round"/><path d="M196 102Q183 98 170 102" fill="none" stroke="#14141c" stroke-width="6" stroke-linecap="round"/><path d="M151 173Q160 181 169 173" fill="none" stroke="#14141c" stroke-width="5.5" stroke-linecap="round" stroke-linejoin="round"/><circle cx="50" cy="158" r="10.5" fill="#fff" stroke="#14141c" stroke-width="3.6"/><circle cx="270" cy="158" r="10.5" fill="#fff" stroke="#14141c" stroke-width="3.6"/><path transform="translate(240 50) rotate(12)" d="M-11 -12A12 12 0 1 1 3 0Q0 2 0 9" fill="none" stroke="#568cff" stroke-width="7" stroke-linecap="round"/><circle transform="translate(240 50) rotate(12)" cx="0" cy="22" r="4.6" fill="#568cff"/></g></g></svg>
