<svg xmlns="http://www.w3.org/2000/svg" viewBox="0 0 1024 1024"><rect width="1024" height="1024" fill="#14141C"/><svg x="64" y="104" width="896" height="896" xmlns="http://www.w3.org/2000/svg" viewBox="72 44 176 176" role="img" aria-label="Namzi, the Namzilabs mascot"><defs><linearGradient id="nzlb" gradientUnits="userSpaceOnUse" x1="112" y1="60" x2="214" y2="252"><stop offset="0" stop-color="#a3c1ff"/><stop offset=".48" stop-color="#6593ff"/><stop offset="1" stop-color="#3566e0"/></linearGradient><radialGradient id="nzlr" gradientUnits="userSpaceOnUse" cx="140" cy="122" r="152"><stop offset=".6" stop-color="#14286e" stop-opacity="0"/><stop offset="1" stop-color="#14286e" stop-opacity=".3"/></radialGradient></defs><ellipse cx="160" cy="316" rx="64" ry="9" fill="#141e50" opacity="0.13"/><g transform="translate(0 0) rotate(0 160 312) translate(160 312) scale(1 1) translate(-160 -312)"><path d="M146 238Q140 278 138 302" fill="none" stroke="#14141c" stroke-width="8" stroke-linecap="round"/><path d="M174 238Q180 278 182 302" fill="none" stroke="#14141c" stroke-width="8" stroke-linecap="round"/><ellipse cx="131" cy="305" rx="15.5" ry="8.5" fill="#14141c"/><ellipse cx="189" cy="305" rx="15.5" ry="8.5" fill="#14141c"/><ellipse cx="127" cy="302" rx="5" ry="2.2" fill="#fff" opacity=".35"/><ellipse cx="185" cy="302" rx="5" ry="2.2" fill="#fff" opacity=".35"/><path d="M97 186Q74 212 70 240" fill="none" stroke="#14141c" stroke-width="7.5" stroke-linecap="round"/><path d="M223 186Q246 212 250 240" fill="none" stroke="#14141c" stroke-width="7.5" stroke-linecap="round"/><path d="M160 52A105.5 105.5 0 0 1 160 254A105.5 105.5 0 0 1 160 52Z" fill="url(#nzlb)" stroke="url(#nzlb)" stroke-width="14" stroke-linejoin="round"/><path d="M160 52A105.5 105.5 0 0 1 160 254A105.5 105.5 0 0 1 160 52Z" fill="url(#nzlr)" stroke="url(#nzlr)" stroke-width="14" stroke-linejoin="round"/><path d="M124.8 90A91 91 0 0 0 103 128" fill="none" stroke="#fff" stroke-opacity=".5" stroke-width="8" stroke-linecap="round"/><circle cx="137" cy="80" r="4.2" fill="#fff" fill-opacity=".5"/><clipPath id="nzleL"><ellipse cx="137" cy="135" rx="18.5" ry="22.5"/></clipPath><g clip-path="url(#nzleL)"><ellipse cx="137" cy="135" rx="18.5" ry="22.5" fill="#fff"/><circle cx="137" cy="138.43" r="9.5" fill="#14141c"/><circle cx="133.58" cy="134.63" r="3.3" fill="#fff"/><circle cx="140.42" cy="142.04" r="1.6" fill="#fff"/></g><clipPath id="nzleR"><ellipse cx="183" cy="135" rx="18.5" ry="22.5"/></clipPath><g clip-path="url(#nzleR)"><ellipse cx="183" cy="135" rx="18.5" ry="22.5" fill="#fff"/><circle cx="183" cy="138.43" r="9.5" fill="#14141c"/><circle cx="179.58" cy="134.63" r="3.3" fill="#fff"/><circle cx="186.42" cy="142.04" r="1.6" fill="#fff"/></g><path d="M124 102Q137 98 150 102" fill="none" stroke="#14141c" stroke-width="6" stroke-linecap="round"/><path d="M196 102Q183 98 170 102" fill="none" stroke="#14141c" stroke-width="6" stroke-linecap="round"/><path d="M151 173Q160 181 169 173" fill="none" stroke="#14141c" stroke-width="5.5" stroke-linecap="round" stroke-linejoin="round"/><circle cx="70" cy="240" r="10.5" fill="#fff" stroke="#14141c" stroke-width="3.6"/><circle cx="250" cy="240" r="10.5" fill="#fff" stroke="#14141c" stroke-width="3.6"/></g></svg></svg>
